<?xml version="1.0" standalone="no"?>
<!DOCTYPE svg PUBLIC "-//W3C//DTD SVG 1.1//EN" "http://www.w3.org/Graphics/SVG/1.1/DTD/svg11.dtd" >
<svg xmlns="http://www.w3.org/2000/svg">
<metadata>Generated by IcoMoon</metadata>
<defs>
<font id="icomoon" horiz-adv-x="1024">
<font-face units-per-em="1024" ascent="960" descent="-64" />
<missing-glyph horiz-adv-x="1024" />
<glyph unicode="&#x20;" horiz-adv-x="512" d="" />
<glyph unicode="&#xe600;" glyph-name="mt-logo" d="M564.685 664.627c44.527-35.328 70.195 8.277 34.679 46.165-19.166 20.463-15.65 40.329-15.65 40.329-49.271-9.574-51.49-60.74-19.029-86.494zM361.865-48.469c0.051-0.273 0.154 1.212 0.205 1.212h-0.444c0.085-0.393 0.154-0.819 0.239-1.212zM617.472 747.52c-6.451 2.133-15.087 3.721-20.053 4.813-1.382-8.243-1.314-21.077 8.67-30.054 16.657-15.036 25.993-33.434 23.245-50.807 30.566-25.242 42.837-68.523 31.795-104.636-7.526-15.974-16.981-29.577-33.997-40.516-39.049-25.105-77.141-26.795-120.661-34.099-44.083-7.407-85.726-23.569-122.863-48.401-67.891-45.397-121.139-128.29-105.284-212.053 13.943-74.086 72.755-136.977 146.244-68.949 50.688 46.899 53.077 104.875 53.077 104.875 2.082 18.108 9.438 13.909 10.052 1.365 0.683-13.346 1.365-65.382-47.002-115.371-60.535-62.618-153.805-54.033-172.612 73.353-1.621 11.008-2.031 34.645-4.25 24.508-28.553-131.482-11.298-298.479-11.298-298.479h109.073c-7.031 34.133-6.69 74.735 0.922 76.1 7.356 1.314 2.833-25.088 14.421-71.612 0.512-2.065 1.195-4.489 1.809-4.489h140.8c-4.079 17.067-8.038 21.453-11.059 35.447-7.305 33.877-7.031 76.015 0.683 77.397 7.339 1.331 2.833-25.020 14.404-71.561 3.789-15.206 10.223-24.218 18.227-41.284h146.432c-56.218 153.6-62.379 248.678-16.521 375.006 0.188 0.563 0.375 0.102 0.734 0.887 7.902 18.483-11.605 16.367-30.43 17.442-27.563 1.519-57.651 12.425-55.842 18.125 2.236 7.031 26.436-12.032 71.68-2.748 25.771 5.291 28.433 11.878 45.909 39.014 0.119 0.171 0.239 0.273 0.341 0.427 4.557 8.943 9.267 17.783 14.353 26.385 27.119 46.063 40.875 97.348 39.1 128.836l0.239-0.034c-2.509 101.154-73.028 168.823-140.339 191.113zM475.631 375.859c-11.179 0-20.275 8.994-20.275 20.105 0 11.127 9.097 20.139 20.275 20.139 11.213 0 20.275-9.011 20.275-20.139 0-11.11-9.062-20.105-20.275-20.105zM486.229 877.67c-0.819-12.766-1.28-26.812 0.119-41.148 40.38 0 75.196-21.163 83.78-26.829-5.052 13.705-12.083 30.259-21.504 47.855-26.283 14.438-47.872 19.012-62.396 20.122zM577.161 821.982c3.703 10.274 11.861 31.164 21.931 46.882-8.38 17.51-20.873 31.437-34.816 42.462-4.403-6.605-10.086-19.422-9.762-41.335 8.26-13.79 16.009-29.747 22.647-48.009zM472.286 950.716l0.034-0.051h0.068zM487.868 918.579c0.922-8.004-0.017-19.063-0.99-31.829 25.105-1.843 43.213-9.387 53.897-15.326-16.401 27.529-38.673 56.218-68.454 79.241-0.205 0.034-0.341 0.068-0.341 0.068s13.244-9.301 15.889-32.154zM589.278 779.861c1.382-6.383 16.981 14.165 20.207 28.143 1.536 19.371-0.939 36.164-6.178 50.773-7.407-11.076-16.026-28.348-20.77-52.941 2.492-8.243 4.762-16.862 6.741-25.975zM561.203 762.692c7.868 1.365 17.101 6.912 19.985 11.315 0 0-2.27 10.394-7.817 26.675-44.476 24.098-75.571 26.846-85.862 26.982 1.143-7.458 2.867-14.916 5.41-22.255 14.916-42.94 54.528-45.107 68.284-42.718zM546.526 882.415c0.119 8.602 2.167 21.436 11.042 33.929-36.966 26.095-80.674 33.604-85.197 34.321 1.468-0.649 40.073-18.227 74.155-68.25z" />
<glyph unicode="&#xe601;" glyph-name="mt-logo-no-leaf" d="M594.364 846.37c55.859-44.322 88.098 10.377 43.52 57.941-24.064 25.668-19.627 50.603-19.627 50.603-61.85-12.015-64.649-76.203-23.893-108.544zM340.087-46.933h-0.563c0.102-0.512 0.188-1.024 0.307-1.536 0.068-0.341 0.188 1.536 0.256 1.536zM660.582 950.391c-8.090 2.662-18.927 4.676-25.173 6.042-1.724-10.359-1.655-26.453 10.871-37.717 20.907-18.859 32.614-41.967 29.167-63.744 38.349-31.676 53.743-85.982 39.902-131.311-9.438-20.036-21.316-37.12-42.65-50.825-48.998-31.505-96.802-33.621-151.415-42.803-55.33-9.301-107.588-29.594-154.163-60.74-85.197-56.969-152.013-160.99-132.13-266.086 17.493-92.979 91.29-171.895 183.518-86.528 63.607 58.863 66.611 131.601 66.611 131.601 2.611 22.716 11.844 17.459 12.612 1.707 0.853-16.742 1.707-82.039-58.982-144.759-75.981-78.575-193.007-67.806-216.61 92.041-2.031 13.824-2.543 43.281-5.325 30.549-35.823-164.983-14.148-374.75-14.148-374.75h136.875c-8.823 42.274-8.397 93.969 1.161 95.71 9.233 1.655 3.567-31.573 18.091-89.958 0.631-2.611 1.485-5.751 2.253-5.751h176.691c-5.12 17.067-10.086 27.119-13.875 44.681-9.165 42.513-8.823 95.488 0.853 97.229 9.216 1.673 3.55-31.556 18.074-89.958 4.745-19.081 12.817-34.884 22.886-51.951h183.757c-70.554 187.733-78.268 312.252-20.719 470.784 0.222 0.717 0.478 0.222 0.905 1.229 9.916 23.194-14.558 20.599-38.178 21.931-34.577 1.894-72.346 15.616-70.076 22.784 2.799 8.823 33.161-15.087 89.958-3.43 32.341 6.639 35.669 14.916 57.6 48.964 0.154 0.205 0.307 0.341 0.427 0.529 5.717 11.23 11.622 22.306 18.022 33.109 34.031 57.805 51.285 122.163 49.067 161.655l0.307-0.034c-3.174 126.908-91.699 211.831-176.162 239.804zM482.594 484.011c-14.029 0-25.429 11.281-25.429 25.242s11.401 25.276 25.429 25.276c14.063 0 25.446-11.315 25.446-25.276s-11.366-25.242-25.446-25.242z" />
<glyph unicode="&#xe602;" glyph-name="up-arrow" d="M135.185 120.115l754.705 3.021c108.885 0.444 167.868 127.676 97.809 211.132l-379.17 451.294c-51.593 61.372-146.21 60.996-197.376-0.785l-375.467-454.315c-69.461-84.019-9.387-210.79 99.499-210.347z" />
<glyph unicode="&#xe603;" glyph-name="left-arrow" d="M916.036 824.815c0.444 108.885-126.327 168.96-210.33 99.499l-454.315-375.467c-61.781-51.166-62.157-145.783-0.785-197.376l451.294-379.17c83.456-70.059 210.688-11.076 211.132 97.809l3.004 754.705z" />
<glyph unicode="&#xe604;" glyph-name="down-arrow" d="M135.185 763.085c-108.885 0.444-168.96-126.327-99.499-210.33l375.467-454.315c51.166-61.781 145.783-62.157 197.376-0.785l379.17 451.294c70.059 83.456 11.076 210.688-97.809 211.132l-754.705 3.004z" />
<glyph unicode="&#xe605;" glyph-name="right-arrow" d="M204.8 824.815l3.021-754.705c0.444-108.885 127.676-167.868 211.132-97.809l451.294 379.17c61.372 51.593 60.996 146.21-0.785 197.376l-454.315 375.467c-84.019 69.461-210.79 9.387-210.347-99.499z" />
<glyph unicode="&#xe606;" glyph-name="credit-card" d="M132.113 278.084h324.71c9.967 0 18.039 8.073 18.039 18.039s-8.073 18.039-18.039 18.039h-324.71c-9.967 0-18.039-8.073-18.039-18.039s8.073-18.039 18.039-18.039zM943.872 783.189h-865.877c-39.851 0-72.158-32.307-72.158-72.158v-541.184c0-39.851 32.307-72.158 72.158-72.158h865.894c39.851 0 72.158 32.307 72.158 72.158v541.184c-0.017 39.851-32.324 72.158-72.175 72.158zM979.951 169.847c0-19.917-16.162-36.079-36.079-36.079h-865.877c-19.917 0-36.079 16.162-36.079 36.079v360.789h938.052v-360.789zM979.951 674.953h-938.035v36.079c0 19.917 16.162 36.079 36.079 36.079h865.894c19.917 0 36.079-16.162 36.079-36.079v-36.079zM907.793 314.163h-108.237v-108.237h108.237v108.237zM132.113 205.926h180.395c9.967 0 18.039 8.073 18.039 18.039s-8.073 18.039-18.039 18.039h-180.395c-9.967 0-18.039-8.073-18.039-18.039s8.073-18.039 18.039-18.039z" />
<glyph unicode="&#xe607;" glyph-name="account-error" d="M517.325 947.2c-278.187 0-504.525-226.338-504.525-504.525 0-278.204 226.338-504.525 504.525-504.525s504.525 226.338 504.525 504.525c0.017 278.187-226.321 504.525-504.525 504.525zM517.325-21.504c-255.949 0-464.179 208.23-464.179 464.179s208.23 464.179 464.179 464.179c255.949 0 464.179-208.23 464.179-464.179s-208.23-464.179-464.179-464.179zM477.867 738.133h85.333v-409.6h-85.333v409.6zM515.874 268.8c-15.838 0-28.945-5.325-39.322-15.974-10.377-10.667-15.565-23.364-15.565-38.093 0-14.199 5.325-26.641 15.991-37.274 10.65-10.667 23.62-15.991 38.895-15.991 15.838 0 28.945 5.444 39.339 16.384 10.359 10.923 15.565 23.467 15.565 37.683 0 14.746-5.205 27.324-15.565 37.683-10.394 10.377-23.518 15.582-39.339 15.582z" />
<glyph unicode="&#xe608;" glyph-name="bank" d="M984.422 110.046v36.454c0 20.139-16.333 36.454-36.454 36.454h-36.454v401.067h54.682c10.069 0 18.227 8.158 18.227 18.227v36.454c0 6.451-3.55 11.844-8.585 15.070l0.171 0.273-455.919 291.413c-2.833 1.826-6.025 3.157-9.643 3.157s-6.793-1.331-9.643-3.157l-0.171 0.273-455.595-291.942c-5.035-3.243-8.585-8.636-8.585-15.070v-36.454c0-10.069 8.158-18.227 18.227-18.227h54.682v-401.067h-36.437c-20.139 0-36.454-16.316-36.454-36.454v-36.454c-20.139-0.017-36.471-16.333-36.471-36.471v-36.454c0-20.139 16.333-36.454 36.454-36.454h947.951c20.139 0 36.454 16.333 36.454 36.454v36.454c0.017 20.139-16.316 36.454-36.437 36.454zM72.926 620.493v8.243l437.504 280.013 437.521-280.013v-8.26h-875.025zM875.042 584.021v-401.067h-72.926v401.067h72.926zM765.662 584.021v-401.067h-72.926v401.067h72.926zM656.282 584.021v-401.067h-72.926v401.067h72.926zM546.901 584.021v-401.067h-72.926v401.067h72.926zM437.521 584.021v-401.067h-72.926v401.067h72.926zM328.141 584.021v-401.067h-72.926v401.067h72.926zM218.761 584.021v-401.067h-72.926v401.067h72.926zM72.926 146.5h875.042v-36.454h-875.042v36.454zM984.422 37.12h-947.968v36.454h947.951v-36.454z" />
<glyph unicode="&#xe609;" glyph-name="custom-account" d="M992.836 930.714l0.614 2.901c-19.9 4.181-490.206 99.84-775.868-101.001-113.613-79.872-181.845-196.045-202.82-345.429-24.747-184.115 99.533-297.916 163.004-343.194l-171.895-172.407 0.137-0.137c-0.102-0.102-0.137-0.256-0.239-0.358-1.69-1.894-3.14-3.977-4.113-6.366-1.058-2.509-1.655-5.274-1.655-8.175 0-12.134 9.847-21.982 21.965-21.982 2.918 0 5.683 0.597 8.209 1.655 2.526 1.024 4.779 2.543 6.741 4.386l0.068-0.068 0.256 0.273c0.171 0.171 0.324 0.324 0.478 0.495l167.066 167.543c41.199-56.32 139.469-162.765 293.786-162.765 16.845 0 34.372 1.297 52.565 4.028 149.402 23.415 265.335 93.815 344.559 209.22 194.56 283.375 104.141 737.997 97.143 771.379zM930.953 899.43l-340.497-341.521-144.486 327.441c187.273 46.95 390.775 27.58 484.983 14.080zM403.268 873.301l153.873-348.791-192.427-193.007-205.397 387.772c23.996 28.774 51.507 54.818 83.422 77.278 48.418 34.048 103.236 58.829 160.529 76.749zM58.3 481.178c10.667 76.066 35.106 142.285 72.038 198.912l201.899-381.15-123.119-123.477c-53.026 35.994-173.449 137.523-150.818 305.715zM365.483 270.029l382.72-197.513c-57.566-39.919-125.423-66.645-203.776-78.916-170.377-25.771-272.503 93.901-308.531 146.483l129.587 129.946zM786.347 102.298l-388.318 200.397 190.106 190.669 344.508-154.863c-17.357-54.869-41.028-107.452-73.25-154.368-21.299-31.010-45.909-58.010-73.045-81.835zM944.93 381.201l-323.584 145.442 337.886 338.893c13.875-96.427 32.853-298.428-14.302-484.335z" />
<glyph unicode="&#xe60a;" glyph-name="digital-money" d="M426.667 874.667c-11.793 0-21.333-9.54-21.333-21.333v-21.333c0-11.776 9.54-21.333 21.333-21.333 11.776 0 21.333 9.557 21.333 21.333v21.333c0 11.793-9.557 21.333-21.333 21.333zM597.333 874.667c-11.776 0-21.333-9.54-21.333-21.333v-21.333c0-11.776 9.557-21.333 21.333-21.333s21.333 9.557 21.333 21.333v21.333c0 11.793-9.557 21.333-21.333 21.333zM997.359 923.853c-7.799 8.841-21.282 9.694-30.106 1.894-8.841-7.799-9.677-21.282-1.894-30.106 10.308-11.691 15.974-26.709 15.974-42.308 0-35.294-28.706-64-64-64s-64 28.706-64 64c0 15.599 5.683 30.652 15.991 42.325 7.799 8.841 6.963 22.323-1.877 30.106-8.841 7.799-22.323 6.963-30.106-1.877-17.203-19.473-26.675-44.544-26.675-70.554 0-51.507 36.71-94.601 85.333-104.516v-151.484l-42.667 32v32.017c0 47.053-38.263 85.316-85.316 85.316h-42.684v192c0 11.776-9.557 21.333-21.333 21.333h-384c-11.776 0-21.333-9.557-21.333-21.333v-192h-42.684c-47.053 0-85.316-38.263-85.316-85.316v-32.017l-42.667-32v151.484c48.623 9.916 85.333 53.009 85.333 104.516 0 25.993-9.455 51.046-26.641 70.519-7.799 8.841-21.282 9.694-30.106 1.894-8.841-7.782-9.694-21.265-1.894-30.106 10.291-11.691 15.974-26.709 15.974-42.308 0-35.294-28.706-64-64-64s-64 28.706-64 64c0 15.599 5.666 30.652 15.991 42.325 7.799 8.841 6.963 22.323-1.877 30.106-8.841 7.799-22.323 6.963-30.106-1.877-17.203-19.473-26.675-44.544-26.675-70.554 0-51.507 36.71-94.601 85.333-104.516v-194.15c0-8.073 4.574-15.462 11.793-19.081 3.021-1.502 6.281-2.253 9.54-2.253 4.54 0 9.028 1.434 12.8 4.267l51.2 38.4v-384.017c0-47.053 38.263-85.316 85.316-85.316h128.017v-128h-192c-11.776 0-21.333-9.557-21.333-21.333s9.557-21.333 21.333-21.333h213.333c11.776 0 21.333 9.557 21.333 21.333v149.333h170.667v-149.333c0-11.776 9.557-21.333 21.333-21.333h213.333c11.776 0 21.333 9.557 21.333 21.333s-9.557 21.333-21.333 21.333h-192v128h128.017c47.053 0 85.316 38.263 85.316 85.316v384.017l51.2-38.4c3.772-2.833 8.26-4.267 12.8-4.267 3.26 0 6.519 0.751 9.54 2.253 7.219 3.618 11.793 11.008 11.793 19.081v194.15c48.623 9.916 85.333 53.009 85.333 104.516 0 25.993-9.455 51.046-26.641 70.519zM341.333 917.333h341.333v-170.667h-341.333v170.667zM810.667 191.983c0-23.518-19.132-42.65-42.65-42.65h-512.034c-23.518 0-42.65 19.132-42.65 42.65v469.367c0 23.518 19.132 42.65 42.65 42.65h512.017c23.518 0 42.65-19.132 42.65-42.65v-469.367z" />
<glyph unicode="&#xe60b;" glyph-name="moneytree" horiz-adv-x="3024" d="M96.543 640.999h72.038l117.126-181.952 117.126 181.952h71.987v-384.873h-67.642v276.026l-121.475-181.445h-2.197l-120.449 180.32v-274.905h-66.513zM544.756 399.636v1.071c0 83.025 65.955 151.739 155.065 151.739 89.058 0 154.499-67.642 154.499-150.667v-1.071c0-82.466-65.955-151.229-155.577-151.229-88.603 0.048-153.989 67.689-153.989 150.155zM787.707 399.636v1.071c0 51.131-36.81 93.457-89.058 93.457-53.326 0-87.428-41.772-87.428-92.38v-1.071c0-50.614 36.81-92.942 88.5-92.942 53.937 0.048 87.985 41.824 87.985 91.87zM916.437 546.468h66.513v-44.532c18.708 26.89 45.654 50.564 90.747 50.564 65.388 0 103.38-43.966 103.38-111.097v-185.279h-66.513v164.98c0 45.094-22.548 70.907-62.171 70.907-38.449 0-65.388-26.945-65.388-72.038v-163.86h-66.513v290.342zM1235.922 400.201v1.123c0 83.025 58.844 151.177 141.87 151.177 92.38 0 139.11-72.548 139.11-156.137 0-6.081-0.561-12.117-1.071-18.708h-213.343c7.157-47.289 40.698-73.674 83.593-73.674 32.41 0 55.523 12.069 78.63 34.613l39.059-34.613c-27.505-32.976-65.437-54.453-118.767-54.453-84.154 0-149.084 61.046-149.084 150.667zM1450.902 421.619c-4.398 42.895-29.708 76.428-73.674 76.428-40.698 0-69.278-31.341-75.359-76.428h149.034zM1779.796 546.468h69.223l-115.491-298.572c-23.057-59.403-48.877-81.342-95.607-81.342-27.505 0-48.364 6.598-68.761 17.585l22.548 49.491c12.069-6.598 25.258-10.991 39.011-10.991 18.708 0 30.263 8.228 41.258 32.976l-120.962 290.851h71.474l81.905-215.547 75.407 215.547zM1914.51 336.397v152.866h-36.861v57.21h36.861v79.706h66.513v-79.706h78.122v-57.21h-78.122v-142.385c0-25.871 13.19-36.298 35.734-36.298 14.877 0 28.071 3.322 41.206 9.868v-54.396c-16.464-9.358-34.663-14.825-59.917-14.825-48.929-0.048-83.538 21.422-83.538 85.179zM2121.264 546.468h66.513v-65.437c18.153 43.456 51.734 73.157 102.863 70.907v-70.352h-3.882c-58.335 0-99.031-37.932-99.031-114.929v-110.485h-66.513v290.288zM2326.938 400.201v1.123c0 83.025 58.797 151.177 141.87 151.177 92.333 0 139.11-72.548 139.11-156.137 0-6.081-0.512-12.117-1.071-18.708h-213.343c7.106-47.289 40.698-73.674 83.538-73.674 32.463 0 55.573 12.069 78.63 34.613l39.011-34.613c-27.457-32.976-65.437-54.453-118.767-54.453-84.107 0-148.977 61.046-148.977 150.667zM2541.875 421.619c-4.398 42.895-29.708 76.428-73.674 76.428-40.698 0-69.278-31.341-75.311-76.428h148.977zM2653.531 400.201v1.123c0 83.025 58.844 151.177 141.87 151.177 92.38 0 139.11-72.548 139.11-156.137 0-6.081-0.561-12.117-1.123-18.708h-213.343c7.157-47.289 40.698-73.674 83.593-73.674 32.41 0 55.573 12.069 78.63 34.613l39.059-34.613c-27.505-32.976-65.492-54.453-118.767-54.453-84.107 0-149.034 61.046-149.034 150.667zM2868.513 421.619c-4.398 42.895-29.708 76.428-73.674 76.428-40.698 0-69.223-31.341-75.311-76.428h148.977z" />
<glyph unicode="&#xe60c;" glyph-name="daycare" horiz-adv-x="943" d="M494.092 960l-480.756-197.748-13.335 0.396v-537.367l511.127-289.268 5.434 3.945c7.878 0.582 19.968 5.283 23.133 12.125l406.412 274.385v514.455c0 3.444 0 7.087 0 10.799v10.391l-452.015 197.888zM498.863-5.737l-464.454 255.686v467.072l464.454-201.472v-521.286zM507.601 553.204l-433.967 194.351 414.103 169.402 378.205-170.193-358.33-193.559zM911.709 248.762l-378.449-243.991v512.535l378.449 193.932v-462.476zM188.951 359.994l100.911-52.399 27.869-90.089 23.692-12.73-89.402 287.395-23.622 11.299-86.737-191.325 21.399-11.508 25.891 59.345zM239.232 475.578l43.299-144.582-87.226 44.881 43.939 99.7zM760.797 289.036c6.865 6.679 12.649 13.347 17.327 19.991 4.666 6.644 8.39 13.277 11.159 19.956 2.769 6.656 4.887 12.975 6.353 18.921 1.466 5.935 2.42 11.473 2.909 16.582s0.721 9.577 0.721 13.382c0 15.686 2.653 26.857-4.026 33.548-6.691 6.714-21.143 7.738-21.143 3.049v0.675c0 4.096 2.816 8.925 6.54 14.499 3.7 5.551 3.91 11.543 6.609 17.955s3.281 13.021 4.748 19.828c1.466 6.796 1.443 13.335 1.443 19.631 0 11.229-1.932 19.712-5.027 25.495s-7.412 9.53-12.591 11.252c-5.178 1.722-11.299 1.629-18.188-0.279-6.9-1.932-16.326-4.992-23.878-9.181l-80.070-43.415v-250.054l80.047 48.943c9.74 6.121 20.177 12.521 27.078 19.235zM670.883 460.66l62.534 33.815c26.857 15.116 41.367 7.482 41.367-22.761 0-5.644-0.209-11.439-1.862-17.338-1.652-5.935-3.805-11.718-7.11-17.396-3.316-5.679-7.296-11.043-12.276-16.14-5.004-5.097-13.335-9.67-20.212-13.731l-62.441-35.316v88.844zM670.883 351.604l62.534 35.689c15.244 9.053 28.055 12.020 36.073 8.995 7.959-3.014 12.556-12.276 12.556-27.834 0-9.681-0.908-18.49-3.375-26.426-2.455-7.948-5.679-15.174-9.961-21.655-4.305-6.505-9.181-12.265-14.825-17.233-5.655-5.004-14.127-9.495-20.492-13.452l-62.511-37.399v99.305zM635.008 770.886c-2.362 6.644-6.935 13.021-13.708 19.165-6.807 6.144-15.244 11.695-25.321 16.663-16.652 8.204-34.106 13.964-52.399 17.268-18.339 3.305-36.515 4.538-54.493 3.712-18.025-0.838-35.398-3.456-52.108-7.866-16.733-4.422-32-10.217-45.789-17.396-13.812-7.168-24.82-15.057-33.024-23.599-8.204-8.564-12.765-17.361-13.708-26.403-0.931-9.030 2.234-18.095 9.495-27.217 7.238-9.088 19.375-17.664 36.364-25.74 12.707-6.039 26.077-10.543 40.111-13.533 13.999-2.979 28.195-4.503 42.589-4.573 14.359-0.070 28.777 1.303 43.264 4.108 14.464 2.793 28.416 7.017 41.891 12.66l-20.143 9.705c-9.809-4.108-20.282-7.308-31.476-9.565-11.194-2.269-22.551-3.514-34.025-3.712-11.497-0.209-22.912 0.745-34.246 2.816-11.357 2.095-22.074 5.539-32.128 10.333-14.348 6.831-24.18 14.022-29.498 21.539-5.329 7.552-7.168 15.069-5.504 22.54 1.652 7.471 6.179 14.708 13.556 21.69 7.343 6.982 16.431 13.3 27.229 18.909 10.973 5.713 23.238 10.508 36.794 14.394 13.521 3.887 27.683 6.377 42.484 7.482 14.755 1.105 29.754 0.442 44.951-1.967 15.151-2.385 29.777-7.075 43.869-13.987 7.727-3.805 14.033-7.959 18.921-12.521 4.887-4.538 8.227-9.286 9.996-14.255 1.769-4.957 1.687-9.972-0.221-15.057-1.943-5.073-5.76-10.007-11.497-14.79l20.038-9.775c8.855 6.016 14.627 12.346 17.303 18.991 2.618 6.691 2.769 13.312 0.442 19.956z" />
<glyph unicode="&#xe60d;" glyph-name="museum_theatre" horiz-adv-x="884" d="M444.265-64l-4.608 0.919c-17.932 3.665-439.668 97.885-439.668 851.247v5.19l2.409 4.643c3.444 6.609 88.367 162.013 442.624 162.013 354.397 0 437.574-155.567 440.948-162.199l2.316-4.55v-5.085c0-747.799-421.481-847.302-439.424-851.177l-4.608-0.989zM44.079 782.068c2.095-670.953 354.909-789.318 399.86-801.641 44.719 13.044 398.161 137.658 400.256 801.78-14.871 21.993-105.344 134.598-399.162 134.598-293.283-0.012-385.431-112.198-400.954-134.737zM444.137 154.159c-168.483 0-240.57 245.097-243.561 255.523-2.211 7.715 0.081 15.988 5.935 21.551 5.888 5.585 14.394 7.459 22.167 5.108 1.361-0.431 137.553-42.543 215.436-42.543 77.964 0 214.074 42.124 215.436 42.543 7.785 2.42 16.291 0.489 22.167-5.108 5.853-5.551 8.157-13.824 5.935-21.551-2.956-10.415-75.031-255.523-243.526-255.523zM257.152 382.767c25.67-64.058 87.296-185.041 186.996-185.041s161.338 120.995 186.996 185.041c-48.861-13.242-129.99-32.559-186.996-32.559s-138.147 19.316-186.996 32.559zM488.576 589.836c0 0 58.252 65.35 111.081 65.35 63.884 0 133.283-87.145 133.283-87.145s-57.67-3.095-119.517 3.375c-61.859 6.493-124.835 18.42-124.835 18.42zM399.709 589.836c0 0-58.252 65.35-111.081 65.35-63.884 0-133.283-87.145-133.283-87.145s57.67-3.095 119.517 3.375c61.859 6.493 124.835 18.42 124.835 18.42z" />
<glyph unicode="&#xe60e;" glyph-name="alarm-clock" d="M969.74 903.855c-61.568 61.568-155.601 70.586-226.897 27.415-0.047-0.012-0.081-0.070-0.14-0.081-2.071-1.268-4.212-2.409-6.249-3.747l0.256-0.244c-7.249-7.249-7.249-18.967 0-26.24l230.167-230.191c7.249-7.226 18.967-7.226 26.24 0l0.221-0.221c1.338 2.025 2.49 4.154 3.747 6.249 0.012 0.047 0.070 0.081 0.081 0.14 43.148 71.308 34.129 165.341-27.439 226.909zM974.848 715.264l-193.687 193.687c53.911 22.784 118.412 12.625 162.374-31.313 43.939-43.939 54.097-108.439 31.313-162.374zM56.774 670.801l230.156 230.191c7.249 7.249 7.249 18.967 0 26.24l0.256 0.244c-2.048 1.338-4.177 2.467-6.249 3.747-0.047 0.012-0.081 0.070-0.14 0.081-71.308 43.159-165.329 34.129-226.909-27.439-61.568-61.568-70.598-155.601-27.415-226.897 0.012-0.047 0.070-0.081 0.081-0.14 1.268-2.095 2.409-4.212 3.747-6.249l0.244 0.221c7.249-7.226 18.967-7.226 26.24 0zM80.116 877.661c43.951 43.939 108.463 54.097 162.374 31.313l-193.687-193.711c-22.784 53.935-12.625 118.435 31.313 162.385zM511.825 756.736c-10.112 0-18.281-8.192-18.281-18.281v-310.784h-201.1c-10.112 0-18.281-8.192-18.281-18.281 0-10.112 8.169-18.281 18.281-18.281h219.392c10.112 0 18.281 8.169 18.281 18.281v329.065c0 10.1-8.192 18.281-18.281 18.281zM511.825 884.689c-262.516 0-475.334-212.817-475.334-475.334 0-129.641 52.038-247.028 136.204-332.788l-112.687-112.698c-6.796-6.796-6.796-17.827 0-24.623s17.827-6.796 24.623 0l113.559 113.559c83.735-73.728 193.292-118.796 313.635-118.796 120.32 0 229.865 45.068 313.6 118.761l113.513-113.513c6.819-6.819 17.873-6.819 24.692 0s6.819 17.873 0 24.692l-112.628 112.628c84.143 85.748 136.169 203.113 136.169 332.742 0 262.551-212.817 475.369-475.334 475.369zM511.825-29.382c-242.327 0-438.761 196.433-438.761 438.761s196.433 438.761 438.761 438.761c242.327 0 438.761-196.433 438.761-438.761s-196.433-438.761-438.761-438.761z" />
<glyph unicode="&#xe60f;" glyph-name="alphbet" horiz-adv-x="1268" d="M88.832 170.019l206.173 524.544h56.087l201.076-524.544h-50.979l-60.474 164.643h-238.976l-61.917-164.643h-51.002zM218.519 376.925h205.44l-102.726 275.386-102.714-275.386zM1027.247 517.597c163.223-24.052 183.61-135.529 183.61-188.719 0-116.585-103.459-183.61-284.172-203.287-2.188 7.308-8.739 24.774-13.859 32.803 158.103 15.302 259.398 71.401 259.398 168.308 0 93.987-64.849 144.279-157.382 156.649-30.615-85.248-85.26-165.388-146.467-222.231 5.818-17.489 12.381-32.803 21.12-44.451l-32.058-19.677c-7.284 11.66-13.836 25.519-19.677 40.82-64.128-52.457-115.852-62.662-144.279-62.662-53.923 0-82.339 40.82-82.339 94.72 0 99.095 85.993 179.98 191.639 222.231-0.733 20.41-0.733 41.53-0.733 63.395s0 44.451 0.733 67.77c-68.492 0-128.954 0-166.854 2.188l-0.733 35.7c38.621-2.188 103.459-2.921 168.308-2.921 0.745 34.223 2.211 76.486 3.665 112.186l58.287-4.364c-0.733-6.551-7.308-13.126-18.944-14.58-2.188-28.416-3.654-64.128-5.108-91.811 78.708 0.733 231.727 10.938 303.849 30.592l5.097-37.167c-75.788-20.41-229.516-27.695-310.4-28.416-1.466-42.985-2.188-83.072-1.466-121.681 38.621 13.126 78.685 19.677 118.772 19.677 10.938 0 21.132 0 30.592-0.733 3.654 11.66 5.841 23.308 7.308 34.967l39.331-10.205-7.261-29.114zM826.88 272.035c-12.393 47.372-19.677 109.3-22.598 183.633-88.169-37.167-157.382-104.937-157.382-183.633 0-29.137 14.569-61.929 54.633-60.474 37.178 1.466 82.362 24.041 125.347 60.474zM976.977 487.715c-21.853 1.466-75.788 1.466-138.438-19.677 2.188-67.025 8.017-123.136 19.654-168.308 48.826 48.815 93.277 115.852 118.772 187.985z" />
<glyph unicode="&#xe610;" glyph-name="anchor" horiz-adv-x="966" d="M947.98 270.883l-120.611-35.13 55.366-40.704c-80.64-126.58-219.462-212.375-378.74-218.961v629.667h118.202v39.401h-118.202v120.204c44.928 9.123 78.79 48.873 78.79 96.489 0 54.4-44.090 98.49-98.49 98.49-54.412 0-98.49-44.090-98.49-98.49 0-47.639 33.862-87.366 78.79-96.489v-120.204h-118.202v-39.401h118.202v-629.667c-159.302 6.575-298.124 92.381-378.764 218.961l55.366 40.704-120.611 35.13-20.596-134.563 51.747 38.586c90.868-143.348 250.589-238.929 432.535-238.929s341.667 95.581 432.535 238.929l51.747-38.586-20.585 134.563zM417.292 861.859c0 36.98 30.010 66.991 66.991 66.991s66.991-30.010 66.991-66.991-30.010-66.991-66.991-66.991-66.991 30.010-66.991 66.991z" />
<glyph unicode="&#xe611;" glyph-name="residency_tax" horiz-adv-x="838" d="M753.513 665.798h-182.854v-146.281h182.854v146.281zM716.928 556.102h-109.719v73.135h109.719v-73.135zM753.513 848.652h-182.854v-146.281h182.854v146.281zM716.928 738.956h-109.719v73.135h109.719v-73.135zM753.513 482.944h-182.854v-146.281h182.854v146.281zM716.928 373.225h-109.719v73.135h109.719v-73.135zM753.513 300.090h-182.854v-146.281h182.854v146.281zM716.928 190.371h-109.719v73.135h109.719v-73.135zM314.636 300.090h-182.854v-146.281h182.854v146.281zM278.074 190.371h-109.719v73.135h109.719v-73.135zM534.074 848.652h-182.854v-146.281h182.854v146.281zM497.501 738.956h-109.719v73.135h109.719v-73.135zM826.647 958.371h-768c-20.201 0-36.573-16.384-36.573-36.573v-950.865c0-20.201 16.384-36.573 36.573-36.573h768c20.201 0 36.573 16.384 36.573 36.573v950.865c0 20.212-16.384 36.573-36.573 36.573zM497.501-29.044h-109.719v292.573h109.719v-292.573zM826.647-29.044h-292.573v329.135h-182.854v-329.158h-292.573v950.865h768v-950.842zM314.636 665.798h-182.854v-146.281h182.854v146.281zM278.074 556.102h-109.719v73.135h109.719v-73.135zM314.636 482.944h-182.854v-146.281h182.854v146.281zM278.074 373.225h-109.719v73.135h109.719v-73.135zM534.074 665.798h-182.854v-146.281h182.854v146.281zM497.501 556.102h-109.719v73.135h109.719v-73.135zM314.636 848.652h-182.854v-146.281h182.854v146.281zM278.074 738.956h-109.719v73.135h109.719v-73.135zM534.074 482.944h-182.854v-146.281h182.854v146.281zM497.501 373.225h-109.719v73.135h109.719v-73.135z" />
<glyph unicode="&#xe612;" glyph-name="square" d="M593.757 956.265h-146.281c-329.146 0-438.865-109.719-438.865-438.865v-146.281c0-329.146 109.719-438.865 438.865-438.865h146.281c329.146 0 438.865 109.719 438.865 438.865v146.281c0 329.146-109.719 438.865-438.865 438.865zM996.049 376.32c0-305.629-101.876-407.505-407.505-407.505h-135.831c-305.652 0-407.517 101.876-407.517 407.505v135.831c0 305.652 101.876 407.517 407.517 407.517h135.831c305.629 0 407.505-101.876 407.505-407.517v-135.831z" />
<glyph unicode="&#xe613;" glyph-name="bag" d="M959.151 661.329h-216.751c-11.951 167.249-56.32 296.96-230.4 296.96-175.791 0-220.16-126.289-230.4-296.96h-215.040c-11.951 0-20.48-10.24-20.48-20.48v-680.96c0-11.951 10.24-20.48 20.48-20.48h892.591c11.951 0 20.48 10.24 20.48 20.48v680.96c0 10.24-10.24 20.48-20.48 20.48v0zM512 915.631c131.409 0 175.791-85.329 187.729-254.289h-375.471c11.951 172.369 54.609 254.289 187.729 254.289v0zM936.96-19.631h-849.92v638.289h192.849c0-15.36 0-32.431-1.711-47.791-11.951-6.831-22.191-20.48-22.191-37.551 0-23.889 18.769-42.671 42.671-42.671s42.671 18.769 42.671 42.671c0 15.36-8.529 29.009-20.48 35.84 0 17.071 0 32.431 1.711 47.791h380.591c0-15.36 1.711-32.431 1.711-47.791-11.951-6.831-20.48-20.48-20.48-35.84 0-23.889 18.769-42.671 42.671-42.671s42.671 18.769 42.671 42.671c0 15.36-8.529 29.009-22.191 37.551 0 17.071 0 32.431-1.711 47.791h192.849v-638.289h-1.711z" />
<glyph unicode="&#xe614;" glyph-name="balloon" d="M682.682 960c-188.207 0-341.341-153.135-341.341-341.341 0-98.409 41.903-187.171 108.765-249.53l-85.050-37.574c-7.028-3.107-11.846-9.763-12.602-17.408-0.756-7.657 2.653-15.116 8.925-19.561l61.149-43.136c-53.167-115.945-140.532-187.497-230.54-187.497-115.991 0-184.879-90.042-187.729-93.871-7.040-9.402-5.143-22.737 4.236-29.801 3.852-2.909 8.355-4.294 12.823-4.294 6.447 0 12.835 2.921 17.047 8.448 0.582 0.791 59.392 76.858 153.647 76.858 106.659 0 204.812 76.276 265.996 205.137l42.845-30.231c3.654-2.583 7.971-3.898 12.288-3.898 3.107 0 6.225 0.687 9.111 2.048 6.959 3.281 11.613 10.054 12.172 17.711l7.11 95.93c43.043-19.642 90.833-30.673 141.161-30.673 188.207 0 341.341 153.135 341.341 341.341-0.012 188.195-153.146 341.318-341.353 341.318v0zM494.662 252.823l-77.871 54.947 70.609 31.185c4.259-2.991 8.599-5.865 13.009-8.669l-5.748-77.463zM682.682 319.977c-164.689 0-298.671 133.981-298.671 298.671s133.981 298.671 298.671 298.671c164.689 0 298.671-133.981 298.671-298.671 0-164.666-133.981-298.671-298.671-298.671v0z" />
<glyph unicode="&#xe615;" glyph-name="pediatrician" d="M709.050 425.46c-5.725 0-11.462 2.176-15.814 6.551l-197.888 197.911c-8.751 8.751-8.751 22.9 0 31.639s22.9 8.751 31.639 0l197.888-197.911c8.751-8.751 8.751-22.9 0-31.639-4.375-4.352-10.1-6.551-15.825-6.551zM550.737 267.171c-5.725 0-11.462 2.176-15.814 6.551l-197.911 197.911c-8.751 8.751-8.751 22.9 0 31.639s22.9 8.751 31.639 0l197.911-197.911c8.751-8.751 8.751-22.9 0-31.639-4.375-4.375-10.1-6.551-15.825-6.551zM385.745-64c-0.326 0-0.652 0-1.012 0.012-7.575 0.337-187.055 9.379-281.542 103.878s-103.564 273.897-103.913 281.472c-0.291 6.272 2.095 12.381 6.54 16.826l619.788 619.799c4.305 4.305 9.344 6.563 16.291 6.551 7.75-0.175 191.418-5.132 286.127-99.84s99.689-278.307 99.863-286.068c0.14-6.086-2.246-11.985-6.551-16.291l-619.764-619.788c-4.201-4.224-9.891-6.551-15.814-6.551zM44.695 313.786c3.177-36.992 19.398-171.497 90.135-242.257 70.935-70.935 205.335-87.005 242.304-90.135l605.568 605.603c-2.292 37.027-15.418 175.185-86.319 246.074-71.063 71.063-209.117 84.073-246.144 86.295l-605.556-605.58zM844.148 747.299c0-18.537-15.023-33.559-33.559-33.559s-33.559 15.023-33.559 33.559c0 18.537 15.023 33.559 33.559 33.559s33.559-15.023 33.559-33.559zM844.148 613.062c0-18.537-15.023-33.559-33.559-33.559s-33.559 15.023-33.559 33.559c0 18.537 15.023 33.559 33.559 33.559s33.559-15.023 33.559-33.559zM709.923 747.299c0-18.537-15.023-33.559-33.559-33.559s-33.559 15.023-33.559 33.559c0 18.537 15.023 33.559 33.559 33.559s33.559-15.023 33.559-33.559zM284.87 188.009c0-18.537-15.023-33.559-33.559-33.559s-33.559 15.023-33.559 33.559c0 18.537 15.023 33.559 33.559 33.559s33.559-15.023 33.559-33.559zM284.87 322.246c0-18.537-15.023-33.559-33.559-33.559s-33.559 15.023-33.559 33.559c0 18.537 15.023 33.559 33.559 33.559s33.559-15.023 33.559-33.559zM419.095 188.009c0-18.537-15.023-33.559-33.559-33.559s-33.559 15.023-33.559 33.559c0 18.537 15.023 33.559 33.559 33.559s33.559-15.023 33.559-33.559z" />
<glyph unicode="&#xe616;" glyph-name="music" horiz-adv-x="1385" d="M1383.796 226.595c0 120.646-61.068 217.1-142.697 232.751-8.192 25.46-28.16 45.405-53.644 53.551-25.647 250.775-238.115 447.092-495.569 447.092s-469.9-196.317-495.546-447.092c-25.484-8.145-45.452-28.090-53.644-53.551-81.641-15.674-142.697-112.14-142.697-232.751s61.068-217.1 142.697-232.751c10.74-33.42 40.285-57.844 77.231-57.844 45.777 0 81.571 37.248 81.571 83.025v415.139c0 34.956-20.317 64.803-50.956 77.021 24.657 220.998 213.155 393.472 440.623 393.472s420.957-172.451 445.591-393.472c-30.662-12.218-46.732-42.065-46.732-77.021v-415.139c0-45.777 31.907-83.025 77.696-83.025 36.945 0 65.292 24.425 76.020 57.844 81.641 15.651 140.055 112.116 140.055 232.751zM56.122 226.595c0 82.025 59.834 153.135 83.025 173.708v-347.439c-23.191 20.596-83.025 91.706-83.025 173.731zM255.116 19.025c0-15.255-19.526-27.671-34.793-27.671s-34.793 12.381-34.793 27.671v415.139c0 15.255 19.526 27.671 34.793 27.671s34.793-12.404 34.793-27.671v-415.139zM1182.801 19.025c0-15.255-7.936-27.671-23.191-27.671s-23.191 12.404-23.191 27.671v415.139c0 15.255 7.936 27.671 23.191 27.671s23.191-12.404 23.191-27.671v-415.139zM1252.375 52.864v347.439c46.383-20.596 83.025-91.706 83.025-173.708s-36.643-153.135-83.025-173.731z" />
<glyph unicode="&#xe617;" glyph-name="hotel" horiz-adv-x="1280" d="M1275.857 256c-2.281 106.671-22.191 168.681-56.448 223.849 0.454 1.92-3.409 8.134-3.409 10.17v387.351c0 42.217-25.169 82.618-67.409 82.618h-1020.975c-42.217 0-63.616-40.401-63.616-82.618v-380.032c0 0-16.431-15.569-15.977-17.489-34.257-55.168-45.382-117.178-47.663-223.849h-0.361v-320h170.671v99.072c0 36.736 22.319 50.257 59.055 50.257h816.768c36.759 0 41.519-13.521 41.519-50.257v-99.072h192v320h-4.143zM127.616 896h1020.975c14.080 0 24.751-4.561 24.751-18.618v-335.29c-21.329 18.153-42.671 33.559-85.329 46.511v110.15c0 50.816-76.823 76.567-237.719 76.567-108.986 0-179.072-11.857-214.575-35.281-35.503 23.424-110.778 35.281-219.776 35.281-160.873-0.023-245.271-25.798-245.271-76.591v-110.15c-21.329-12.951-42.671-28.335-64-46.511v335.313c0 14.057 6.889 18.618 20.945 18.618zM234.671 607.127v88.657c0 8.913 58.031 28.439 192 28.439s170.671-19.514 192-28.439v-48.279c-170.671-1.071-298.671-12.625-384-40.39zM661.329 695.785c21.329 8.913 58.031 28.439 192 28.439s192-19.526 192-28.439v-88.657c-85.329 27.753-213.329 39.319-384 40.39v48.279zM638.103 587.823c512.943 0 582.575-97.152 586.81-331.823h-1173.632c4.247 234.671 73.903 331.823 586.822 331.823zM1237.329-21.329h-85.329v56.401c0 64.873-40.623 92.928-105.495 92.928h-816.791c-64.873 0-101.713-28.055-101.713-92.928v-56.401h-85.329v234.671h1194.671v-234.671z" />
<glyph unicode="&#xe618;" glyph-name="izakaya_bars" horiz-adv-x="931" d="M800.815 624.244c-32.396 0-66.956-6.703-84.015-12.835v71.831c34.129 21.807 63.023 62.394 63.023 108.87 0 69.423-56.436 125.917-125.871 125.917-31.5 0-61.009-11.59-83.921-32.407-22.9 20.817-52.433 32.407-83.933 32.407-18.839 0-37.167-4.201-54.016-12.276-27.718 34.292-68.969 54.237-113.873 54.237-48.081 0-92.823-23.855-120.029-62.452-20.294 13.347-43.997 20.48-68.829 20.48-69.423 0-131.549-56.471-131.549-125.917 0-37.155 19.247-70.516 36.317-93.58v-627.782c0-89.647 60.672-134.761 150.319-134.761h393.472c89.647 0 138.868 45.103 138.868 134.761v112.791c119.471 0 209.885 162.188 209.885 314.775 0 74.124-51.747 125.917-125.871 125.917zM665.6 533.329h-98.595c-9.391 34.129-17.932 65.548-17.932 114.804 0 17.222 10.903 34.641 21.83 47.977 22.784-20.34 47.313-30.767 78.406-30.767 7.168 0 16.303 1.606 16.303 2.769v-134.772zM129.361 876.067c22.575 0 43.776-8.89 59.695-25.018 4.829-4.899 11.706-7.156 18.548-5.923 6.772 1.175 12.544 5.62 15.43 11.857 17.14 37.085 54.493 61.044 95.197 61.044 37.015 0 70.575-19.049 89.809-50.909 3.025-4.98 7.936-8.495 13.638-9.716 5.679-1.21 11.625 0.012 16.396 3.34 14.266 10.019 30.895 15.29 48.058 15.29 26.519 0 50.956-12.428 67.119-34.083 7.901-10.636 25.74-10.636 33.652 0 16.14 21.655 40.599 34.083 67.119 34.083 46.301 0 83.933-37.644 83.933-83.933s-37.644-83.933-83.933-83.933c-26.519 0-50.956 12.428-67.119 34.083-3.956 5.329-10.193 8.448-16.826 8.448-6.621 0-12.87-3.142-16.826-8.448-2.129-2.851-4.864-6.028-7.855-9.553-15.244-17.932-38.284-45.044-38.284-81.117 0-72.844 17.187-118.016 29.731-150.993 6.842-17.967 12.241-32.151 12.241-44.276 0-34.711-28.241-62.964-62.964-62.964s-62.964 28.241-62.964 62.964c0 12.113 5.388 26.298 12.241 44.241 12.544 33.012 29.731 78.196 29.731 151.075 0 39.215-24.692 66.49-37.969 81.14l-4.247 9.937c-3.828 4.457-9.297 12.497-15.116 12.497-0.244 0-0.512 0-0.78 0-5.527 0-10.857-7.377-14.801-11.276-19.793-19.712-46.092-33.14-73.996-33.14-32.873 0-63.244 13.812-83.351 40.111-4.201 5.481-10.857 7.785-17.676 7.575-6.877-0.326-13.161-4.34-16.815-10.193-15.535-24.902-42.089-39.936-71.028-39.936-46.289 0-83.933 37.585-83.933 83.863s37.667 83.863 83.956 83.863zM128.337 666.217c34.479 0 67.153 13.964 90.612 38.26 26.833-24.564 61.917-38.26 99.037-38.26 31.604 0 61.812 9.914 86.831 28.3 9.286-11.299 18.281-28.916 18.281-46.301 0-49.303-8.518-80.721-17.885-114.863h-319.884v140.218c17.071-4.689 28.265-7.354 43.008-7.354zM665.6 70.761c0-67.107-20.561-100.62-87.668-100.62h-393.472c-67.119 0-99.119 33.524-99.119 100.62v428.439h304.5c-5.004-17.071-8.634-28.16-8.634-42.415 0-57.856 47.069-105.146 104.925-105.146s104.925 47.395 104.925 105.251c0 14.255-3.654 25.228-8.657 42.287h83.2v-428.428zM716.8 225.524v341.981c17.071 5.737 49.885 14.767 84.015 14.767 50.991 0 83.898-32.954 83.898-83.933 0-134.109-65.524-272.815-167.924-272.815z" />
<glyph unicode="&#xe619;" glyph-name="beetle" horiz-adv-x="1117" d="M674.351 811.322c-11.636 0-21.725 8.669-23.191 20.503-5.748 46.417-45.393 81.396-92.265 81.396-46.417 0-86.004-34.607-92.125-80.512-1.711-12.8-13.591-21.783-26.263-20.084-12.8 1.711-21.795 13.463-20.084 26.263 9.204 69.050 68.736 121.123 138.484 121.123 70.423 0 130.036-52.631 138.671-122.415 1.594-12.823-7.529-24.506-20.329-26.077-0.954-0.128-1.932-0.186-2.886-0.186zM558.895 493.231c-201.856 0-280.483 52.55-280.483 187.415 0 128.756 145.396 187.415 280.483 187.415 135.11 0 280.483-58.659 280.483-187.415 0.023-134.865-78.627-187.415-280.483-187.415zM558.895 819.014c-93.033 0-231.447-36.852-231.447-138.368 0-91.776 35.782-138.368 231.447-138.368s231.447 46.604 231.447 138.368c0.023 101.516-138.415 138.368-231.447 138.368zM887.052 483.712c-2.199 0-3.572 0.070-3.91 0.093-12.823 0.849-22.516 11.939-21.69 24.762 0.849 12.765 11.055 22.365 24.599 21.702 1.955-0.128 45.149-1.722 86.272 37.457 49.245 46.883 75.276 134.202 75.276 252.567 0 12.847 10.403 23.261 23.261 23.261s23.261-10.415 23.261-23.261c0-134.249-30.604-230.959-90.961-287.453-48.815-45.719-101.457-49.14-116.108-49.14zM230.761 483.712c-14.662 0-67.27 3.421-116.108 49.117-60.358 56.495-90.95 153.204-90.95 287.453 0 12.847 10.415 23.261 23.261 23.261s23.261-10.415 23.261-23.261c0-118.353 26.019-205.684 75.276-252.567 41.169-39.203 84.352-37.516 86.295-37.457 12.765 0.070 23.75-9.146 24.483-21.911 0.733-12.753-8.844-23.692-21.585-24.553-0.361 0-1.711-0.070-3.921-0.070zM1070.848-64c-12.858 0-23.261 10.403-23.261 23.261 0 177.617-195.526 206.697-203.857 207.837-12.707 1.769-21.609 13.498-19.887 26.205 1.722 12.73 13.068 21.69 26.159 19.921 2.444-0.337 244.131-35.444 244.131-253.975-0.023-12.858-10.415-23.261-23.284-23.261zM1094.109 331.183h-202.717c-13.091 0-23.68 10.589-23.68 23.68s10.589 23.68 23.68 23.68h202.74c13.091 0 23.68-10.589 23.68-23.68s-10.589-23.68-23.692-23.68zM46.953-64c-12.847 0-23.261 10.403-23.261 23.261 0 218.519 241.687 253.638 244.131 253.975 12.695 1.711 24.413-7.168 26.159-19.921 1.745-12.707-7.168-24.425-19.887-26.205-8.332-1.129-203.857-30.208-203.857-207.825 0-12.881-10.415-23.284-23.284-23.284zM224.943 331.183h-201.251c-13.091 0-23.692 10.589-23.692 23.68s10.612 23.68 23.692 23.68h201.251c13.091 0 23.692-10.589 23.692-23.68s-10.624-23.68-23.692-23.68zM558.895-40.867l-2.572 0.279c-227.468 25.274-346.473 235.869-346.473 430.836 0 125.743 0 195.002 65.152 195.002 17.047 0 36.387-5.236 63.162-12.463 46.697-12.649 117.295-31.744 220.742-31.744 93.44 0 159.197 14.022 207.185 24.262 27.45 5.853 49.14 10.473 67.305 10.473 74.554 0 74.554-77.824 74.554-185.519 0-194.967-119.017-405.562-346.473-430.836l-2.572-0.279zM275.002 538.705c-14.255 0-18.607-34.7-18.607-148.457 0-173.521 103.901-360.704 302.511-384.268 198.621 23.564 302.511 210.746 302.511 384.268 0 132.247-10.624 138.973-28.009 138.973-13.277 0-32.838-4.166-57.6-9.46-50.013-10.659-118.528-25.286-216.89-25.286-109.661 0-183.831 20.073-232.925 33.361-22.4 6.086-40.099 10.868-50.979 10.868zM558.895-30.022c-12.847 0-23.261 10.403-23.261 23.261v361.612c0 12.858 10.415 23.261 23.261 23.261 12.858 0 23.261-10.403 23.261-23.261v-361.612c0.023-12.858-10.403-23.261-23.261-23.261z" />
<glyph unicode="&#xe61a;" glyph-name="bell" horiz-adv-x="838" d="M422.947-66.223c45.975 0 84.701 36.352 99.258 70.481h-198.516c14.557-34.129 53.283-70.481 99.258-70.481zM733.871 194.769v387.7c0 163.281-119.471 297.588-273.071 315.148v62.383h-85.329v-62.383c-136.529-17.559-273.071-151.878-273.071-315.148v-387.7c0-58.38-43.997-105.74-102.4-105.74v-33.548h836.271v33.548c-51.2 0-102.4 47.36-102.4 105.74zM72.145 89.6c37.132 34.129 68.492 58.159 68.492 105.46l0.337 387.572c0 159.372 120.017 288.954 279.377 288.954s279.377-129.722 279.377-289.094v-387.7c0-47.313 36.876-71.052 74.019-105.181h-701.615z" />
<glyph unicode="&#xe61b;" glyph-name="children" horiz-adv-x="1280" d="M947.2 601.612c-21.399 0-42.287-2.223-62.569-6.097l-57.553 211.025c78.697 1.001 145.722 9.274 145.722 76.672 0 49.769-70.016 63.744-131.025 70.33-60.346 6.528-128.919 6.458-169.449 6.458h-6.726c-14.15 0-25.6-7.191-25.6-21.329s11.462-21.329 25.6-21.329h6.737c0.698 0 1.408 0 2.095 0 196.922 0 238.545-22.714 247.075-31.802-1.489-16.047-23.226-25.786-127.907-25.786-7.983 0-15.511-4.806-20.352-11.136s-6.447-15.104-4.352-22.807l25.425-93.487c-192.977-41.961-323.34-125.009-411.020-214.737l-65.071 73.937c136.704 50.49 158.336 65.455 158.336 91.217 0 13.463-6.342 42.601-65.082 42.601h-232.297c-56.623 0-76.8-28.369-76.8-56.937 0-78.313 46.161-118.249 91.753-118.249 8.111 0 15.895 1.862 23.121 4.48l30.615 11.183c6.551 2.327 12.439 4.561 18.63 6.784l82.304-93.545c-25.065-29.975-46.103-60.090-63.29-89.216-17.711 4.375-36.119 6.97-55.168 6.97-127.034 0-230.4-103.343-230.4-230.4s103.354-230.4 230.4-230.4 230.4 103.354 230.4 230.4c0 89.751-51.689 167.459-126.755 205.498 72.471 118.505 211.072 254.115 473.798 310.609l27.45-100.666c-128.489-46.138-220.835-168.855-220.835-313.041 0-183.505 149.283-332.788 332.788-332.788s332.777 149.283 332.777 332.788-149.283 332.788-332.777 332.788zM230.796 616.436l-30.906-12.079c-1.129-0.407-3.025-1.431-5.737-1.431-14.033 0-40.553 16.105-40.553 69.969 0 5.958 17.257 9.751 25.6 9.751h218.705c-45.545-21.329-126.615-51.84-167.098-66.223zM409.588 166.412c0-98.793-80.384-179.2-179.2-179.2s-179.2 80.407-179.2 179.2 80.384 179.2 179.2 179.2c10.193 0 20.154-1.047 29.882-2.711-47.104-96.64-55.215-172.265-55.377-174.115-1.327-14.080 9.041-26.554 23.098-27.881 0.815-0.058 1.617-0.105 2.385-0.105 13.079 0 24.239 9.937 25.472 23.226 0.175 1.711 7.889 72.809 53.225 163.107 59.415-29.207 100.503-90.193 100.503-160.721zM947.2-12.777c-155.287 0-281.588 126.313-281.588 281.588 0 120.611 76.369 223.465 183.191 263.505l73.705-270.22c3.095-11.392 13.417-18.886 24.681-18.886 2.246 0 4.503 0.279 6.737 0.896 13.649 3.735 21.702 17.792 17.99 31.418l-73.728 270.313c15.953 2.816 32.279 4.561 49.024 4.561 155.287 0 281.588-126.336 281.588-281.588s-126.336-281.588-281.588-281.588z" />
<glyph unicode="&#xe61c;" glyph-name="bin" horiz-adv-x="861" d="M574.057 817.606c-11.334 0-20.503 9.169-20.503 20.503v26.81c0 41.786-12.451 55.203-51.258 55.203h-143.5c-38.796 0-51.258-13.417-51.258-55.203v-26.81c0-11.322-9.169-20.503-20.503-20.503s-20.503 9.169-20.503 20.503v26.81c0 64.733 30.185 96.209 92.265 96.209h143.5c62.092 0 92.265-31.476 92.265-96.209v-26.81c0-11.322-9.158-20.503-20.503-20.503zM861.091 694.598h-861.091v123.020h44.951c9.053 23.156 32.431 41.007 57.565 41.007h656.070c25.135 0 48.489-17.85 57.542-41.007h44.975v-123.020zM41.007 735.604h779.078v41.007h-41.007v20.503c0 9.588-10.915 20.503-20.503 20.503h-656.070c-9.588 0-20.503-10.915-20.503-20.503v-20.503h-41.007v-41.007zM676.561 59.020h-123.020v553.565h123.020v-553.565zM594.56 100.015h41.007v471.564h-41.007v-471.564zM492.044 59.020h-122.996v553.565h122.996v-553.565zM410.054 100.015h40.983v471.564h-40.983v-471.564zM307.537 59.020h-123.020v553.565h123.020v-553.565zM225.524 100.015h41.007v471.564h-41.007v-471.564zM717.568-64h-574.057c-45.231 0-82.013 36.783-82.013 82.013v676.585c0 11.334 9.169 20.503 20.503 20.503s20.503-9.169 20.503-20.503v-676.585c0-22.609 18.385-41.007 41.007-41.007h574.057c22.609 0 41.007 18.397 41.007 41.007v676.585c0 11.334 9.169 20.503 20.503 20.503s20.503-9.169 20.503-20.503v-676.585c0-45.242-36.771-82.013-82.013-82.013z" />
<glyph unicode="&#xe61d;" glyph-name="pie" d="M573.44-64c-248.436 0-450.56 202.124-450.56 450.56 0 21.178 1.466 42.356 4.352 62.941l40.564-5.702c-2.607-18.7-3.956-37.958-3.956-57.239 0-225.862 183.738-409.6 409.6-409.6s409.6 183.738 409.6 409.6-183.738 409.6-409.6 409.6c-18.141 0-36.433-1.199-54.377-3.572l-5.364 40.599c19.712 2.595 39.82 3.921 59.729 3.921 248.436 0 450.56-202.124 450.56-450.56s-202.124-450.56-450.56-450.56zM471.040 488.96h-471.040v20.48c0 248.436 202.124 450.56 450.56 450.56h20.48v-471.040zM41.472 529.92h388.608v388.62c-209.594-10.38-378.252-179.025-388.608-388.62z" />
<glyph unicode="&#xe61e;" glyph-name="books_magazines" horiz-adv-x="1199" d="M1109.341 942.127h-448c-25.519 0-48.361-11.276-64.012-29.033-15.639 17.757-38.493 29.033-64.012 29.033h-447.977c-47.127 0-85.341-38.214-85.341-85.341v-768c0 0 0-85.341 85.341-85.341s405.341 0 405.341 0 85.341 0 85.341-85.341h42.659c0 0 0 85.341 85.341 85.341h405.341c0 0 85.341 0 85.341 85.341v768c-0.023 47.127-38.225 85.341-85.353 85.341zM576 14.115c-21.329 32-64.012 32-64.012 32s-384.012 0-426.671 0c-42.659 0-42.659 42.659-42.659 42.659s0 561.373 0 725.341v42.659c0 23.564 19.119 42.659 42.659 42.659h448.023c23.564 0 42.659-19.095 42.659-42.659v-842.671zM1152.012 814.127c0-163.956 0-725.341 0-725.341s0-42.659-42.659-42.659c-42.659 0-426.671 0-426.671 0s-42.659 0-64.012-32v842.671c0 23.564 19.095 42.659 42.659 42.659h448c23.564 0 42.659-19.095 42.659-42.659v-42.659z" />
<glyph unicode="&#xe61f;" glyph-name="restaurant" d="M135.284-64c-27.497 0-50.339 8.623-67.852 25.658-134.447 130.641-31.884 368.303 0.721 420.131 0.582 0.919 1.199 1.757 1.85 2.572v21.411c0 149.713 112.279 176.896 149.167 185.844 6.365 1.536 13.871 2.467 21.609 2.234v13.126c0 109.405 67.921 164.864 201.868 164.864 3.642 0 7.424-0.209 11.369-0.628v20.073c0 104.623 121.937 104.623 162.001 104.623l27.101-0.198c6.668 0 10.415 0.163 12.532 0.349 66.548 41.844 135.215 63.942 198.831 63.942 60.439 0 112.78-19.479 151.389-56.32 15.151-14.464 22.993-34.572 23.319-59.753 1.21-102.598-134.737-305.629-346.356-517.283-259.281-259.212-443.485-390.644-547.503-390.644 0 0 0 0-0.023 0zM98.967 349.824c-30.103-55.796-109.207-253.137-1.78-357.551 9.414-9.135 21.876-13.568 38.097-13.568h0.023c63.453 0 204.695 65.594 517.329 378.124 200.739 200.774 334.906 396.335 333.836 486.598-0.163 13.44-3.468 23.052-10.077 29.37-30.511 29.137-72.669 44.532-121.914 44.532-56.599 0-118.656-20.585-179.468-59.543l-5.679-2.572c-6.505-1.827-14.848-2.199-26.193-2.199l-27.101 0.198c-65.396 0-100.911-10.682-113.722-35.793 2.851 0.14 5.807 0.198 8.832 0.198 72.576 0 209.361-40.064 228.387-85.702 5.679-13.638 2.746-28.207-7.901-38.935-14.406-14.534-34.956-21.888-61.137-21.888-40.471 0-89.228 16.943-136.378 33.327-34.979 12.16-71.133 24.716-91.462 24.716-89.961 0-139.194-25.158-154.182-80.477 17.35 6.493 37.423 9.833 59.683 9.833 85.667 0 197.911-50.676 222.406-100.41 8.076-16.396 6.912-33.327-3.165-46.429-12.090-15.709-32-23.68-59.136-23.68-40.273 0-94.639 17.21-147.223 33.85-45.568 14.429-92.707 29.347-120.937 29.347-4.305 0-7.971-0.349-10.857-1.059-49.99-12.090-100.945-34.804-113.559-107.439 17.769 6.051 38.063 9.111 60.719 9.111 77.3 0 170.007-36.969 187.194-74.601 5.679-12.497 3.98-25.833-4.608-35.724-12.3-14.15-33.466-20.748-66.63-20.748-43.578 0-100.305 11.299-145.897 20.399-18.013 3.584-36.527 7.284-47.476 8.727zM108.125 391.622c11.229-1.652 26.263-4.608 46.662-8.669 41.437-8.25 98.199-19.549 137.553-19.549 13.068 0 21.364 1.233 26.496 2.583-19.712 16.431-81.373 43.089-142.464 43.089-28.311 0-51.782-6.016-68.247-17.455zM275.456 589.999c29.137-5.539 63.116-16.291 98.467-27.485 49.489-15.663 100.666-31.86 134.342-31.86 9.065 0 20.817 1.21 25.286 7.017-1.385 19.212-96.477 78.127-185.379 78.127-21.958 0-52.026-4.084-70.551-23.564l-2.153-2.234zM473.728 767.86c21.76-4.817 46.86-13.545 74.391-23.121 41.775-14.511 89.123-30.964 122.38-30.964 11.578 0 20.305 1.897 26.496 5.783-20.62 20.62-118.737 55.354-185.844 55.354-15.36 0-23.855-1.99-28.288-3.642l-9.135-3.409z" />
<glyph unicode="&#xe620;" glyph-name="briefcase" horiz-adv-x="943" d="M917.329 661.341h-216.774c-11.217 168.087-56.925 298.659-231.226 298.659-175.663 0-220.672-126.615-231.471-298.659h-216.529c-11.776 0-21.341-9.553-21.341-21.341v-682.671c0-11.776 9.542-21.341 21.341-21.341h896c11.776 0 21.341 9.553 21.341 21.341v682.671c0 11.764-9.553 21.341-21.341 21.341v0zM469.329 917.329c132.387 0 176.535-86.063 188.311-256h-376.844c11.392 172.94 54.842 256 188.532 256v0zM896-21.329h-853.341v639.988h193.175c-0.535-15.86-0.826-32.058-0.989-48.477-12.788-7.366-21.527-21.027-21.527-36.852 0-23.564 19.107-42.671 42.671-42.671s42.671 19.107 42.671 42.671c0 15.651-8.529 29.196-21.097 36.608 0.209 16.873 0.582 33.117 1.129 48.721h381.184c0.593-15.639 0.977-31.884 1.199-48.721-12.556-7.436-21.085-20.957-21.085-36.608 0-23.564 19.107-42.671 42.671-42.671s42.671 19.107 42.671 42.671c0 15.837-8.727 29.51-21.539 36.864-0.186 16.372-0.535 32.559-1.082 48.477h193.292v-640.012h-0.012z" />
<glyph unicode="&#xe621;" glyph-name="home_improvement" d="M183.308 78.15c0-22.621-18.339-40.948-40.948-40.948s-40.948 18.339-40.948 40.948c0 22.621 18.339 40.948 40.948 40.948s40.948-18.339 40.948-40.948zM921.297 469.481c0.279 0.279 0.361 0.628 0.593 0.908l102.295 102.307-387.258 387.305-389.725-389.655c-5.958-5.958-7.668-14.964-4.271-22.703 34.49-78.743 60.847-178.502 43.555-195.77-38.575-38.575-76.719-54.365-113.617-69.632-30.348-12.556-58.996-24.413-82.246-47.674-78.511-78.499-123.276-208.721-61.987-270.045 18.641-18.665 45.498-28.521 77.661-28.521 61.94 0 137.495 35.491 192.477 90.438 25.577 25.623 44.428 65.28 62.639 103.61 16.745 35.2 34.060 71.61 54.633 92.218 5.050 5.050 15.174 7.715 29.289 7.715 62.348 0 164.596-50.339 165.62-50.839 7.889-3.921 17.35-2.397 23.575 3.863l283.439 283.439c1.315 1.094 2.432 2.118 3.34 3.025zM615.773 222.15c-31.709 14.545-112.524 48.768-170.438 48.768-25.577 0-45.161-6.633-58.24-19.724-25.577-25.588-44.439-65.245-62.662-103.587-16.745-35.223-34.036-71.61-54.621-92.253-46.941-46.906-112.663-78.417-163.514-78.417-21.364 0-37.737 5.562-48.687 16.524-37.888 37.923-7.18 142.988 61.975 212.143 17.478 17.501 41.344 27.357 68.957 38.796 38.714 16.012 82.572 34.176 126.895 78.499 41.961 41.879-6.074 172.439-29.475 228.294l99.468 99.456 329.425-329.437-99.072-99.060zM966.272 572.695l-76.346-76.381c-13.498-10.857-57.472-34.653-73.553-21.62-0.617 5.283 2.991 19.002 5.457 28.276 7.18 27.217 17.024 64.454-8.518 89.996-24.169 24.169-56.669 15.988-82.676 9.437-15.116-3.782-32.198-8.041-37.388-2.828-3.933 3.933-15.895 15.907-2.839 46.813l1.536 3.677c21.946 51.828 39.587 100.399 14.767 125.231-22.237 22.26-62.452 15.092-119.482-21.26-24.169-15.407-56.774-25.472-67.223-15.034-8.995 8.995-11.206 18.257-7.168 30.022 3.375 9.821 10.694 19.433 15.942 24.681 0.221 0.221 0.291 0.512 0.5 0.733l107.66 107.625 329.332-329.391zM473.286 738.479c3.351-10.228 9.204-19.863 17.757-28.416 29.673-29.708 82.246-13.498 118.202 9.437 46.289 29.487 66.095 28.579 67.91 27.648 2.758-5.783 1.024-24.553-22.924-81.117l-1.559-3.712c-20.666-48.954-1.629-78.464 11.601-91.683 21.655-21.679 51.968-14.045 76.323-7.959 21.76 5.457 36.55 8.483 43.753 1.315 8.879-8.879 3.049-31.034-2.141-50.583-6.412-24.343-13.091-49.524 4.143-66.735 7.82-7.82 20.061-14.988 37.748-16.221l-80.256-80.279-329.46 329.425 58.892 58.857z" />
<glyph unicode="&#xe622;" glyph-name="bucket" horiz-adv-x="698" d="M347.427 960c-191.86 0-347.427-155.578-347.427-347.427v-164.573h36.573v36.573h36.573v-548.573h548.573v548.573h36.573v-36.573h36.573v164.573c-0.012 191.849-155.578 347.427-347.439 347.427zM585.146-27.427h-475.427v512h475.427v-512zM585.146 521.146h-475.427v36.573h475.427v-36.573zM658.281 521.146h-36.573v73.146h-548.561v-73.146h-36.573v91.427c0 175.721 139.183 318.173 310.854 318.173s310.854-142.452 310.854-318.173v-91.427z" />
<glyph unicode="&#xe623;" glyph-name="fastfood" horiz-adv-x="1222" d="M1221.306 478.557h-1221.306v18.769c0 341.492 328.972 462.685 610.676 462.685s610.63-121.193 610.63-462.685v-18.769zM37.911 516.096h1145.472c-12.079 299.462-313.693 406.353-572.719 406.353-259.037 0-560.687-106.892-572.753-406.353zM1153.199 133.283h-1085.103c-37.551 0-68.096 30.557-68.096 68.096v49.315c0 37.562 30.557 68.096 68.096 68.096h57.088l90.88-90.88 90.903 90.88h846.231c37.562 0 68.096-30.557 68.096-68.096v-49.315c0-37.551-30.534-68.096-68.096-68.096zM68.096 281.274c-16.849 0-30.557-13.708-30.557-30.569v-49.315c0-16.849 13.708-30.557 30.557-30.557h1085.103c16.873 0 30.569 13.708 30.569 30.557v49.315c0 16.873-13.708 30.569-30.569 30.569h-830.697l-106.438-106.426-106.426 106.426h-41.542zM1103.884 330.589h-986.473c-37.551 0-68.084 30.557-68.084 68.084 0 37.551 30.557 68.084 68.084 68.084h986.473c37.551 0 68.084-30.557 68.084-68.084 0-37.551-30.557-68.084-68.084-68.084zM117.411 429.219c-16.849 0-30.557-13.708-30.557-30.557s13.708-30.557 30.557-30.557h986.473c16.849 0 30.557 13.708 30.557 30.557s-13.708 30.557-30.557 30.557h-986.473zM1005.231-64h-789.167c-91.939 0-166.726 74.787-166.726 166.749v18.769h1122.653v-18.769c-0.023-91.962-74.81-166.749-166.749-166.749zM88.227 83.968c9.111-62.371 62.964-110.441 127.837-110.441h789.167c64.873 0 118.737 48.047 127.86 110.441h-1044.864z" />
<glyph unicode="&#xe624;" glyph-name="calender" d="M859.427 850.281v109.719h-36.573v-109.719h-621.719v109.719h-36.573v-109.719h-164.573v-914.281h1024v914.281h-164.573zM987.427-27.427h-950.854v731.427h950.854v-731.427zM987.427 740.573h-950.854v73.146h128v-36.573h36.573v36.573h621.719v-36.573h36.573v36.573h128v-73.146zM694.854 630.854h-146.281v-146.281h146.281v146.281zM658.281 521.146h-73.146v73.146h73.146v-73.146zM914.281 411.427h-146.281v-146.281h146.281v146.281zM877.719 301.719h-73.146v73.146h73.146v-73.146zM914.281 630.854h-146.281v-146.281h146.281v146.281zM877.719 521.146h-73.146v73.146h73.146v-73.146zM256 411.427h-146.281v-146.281h146.281v146.281zM219.427 301.719h-73.146v73.146h73.146v-73.146zM475.427 192h-146.281v-146.281h146.281v146.281zM438.854 82.281h-73.146v73.146h73.146v-73.146zM256 192h-146.281v-146.281h146.281v146.281zM219.427 82.281h-73.146v73.146h73.146v-73.146zM475.427 411.427h-146.281v-146.281h146.281v146.281zM438.854 301.719h-73.146v73.146h73.146v-73.146zM475.427 630.854h-146.281v-146.281h146.281v146.281zM438.854 521.146h-73.146v73.146h73.146v-73.146zM694.854 411.427h-146.281v-146.281h146.281v146.281zM658.281 301.719h-73.146v73.146h73.146v-73.146zM694.854 192h-146.281v-146.281h146.281v146.281zM658.281 82.281h-73.146v73.146h73.146v-73.146z" />
<glyph unicode="&#xe625;" glyph-name="auto" horiz-adv-x="1152" d="M379.311 265.949h368.652c11.311 0 20.492 9.158 20.492 20.492s-9.158 20.492-20.492 20.492h-368.652c-11.311 0-20.492-9.158-20.492-20.492s9.169-20.492 20.492-20.492zM1096.122 511.721c-40.972 409.6-245.772 450.56-286.72 450.56s-245.772 0-245.772 0-204.788 0-245.772 0-245.748-40.96-286.72-450.56c-22.621 0-40.96-18.327-40.96-40.96v-430.092c0-56.564 45.836-102.4 102.4-102.4s102.4 45.836 102.4 102.4v61.44h737.28v-61.44c0-56.564 45.836-102.4 102.4-102.4s102.4 45.836 102.4 102.4v430.092c0.023 22.609-18.316 40.96-40.937 40.96zM317.871 921.321c20.492 0 245.772 0 245.772 0s225.28 0 245.772 0c20.492 0 204.788-40.96 245.772-409.6h-983.040c40.96 368.652 225.28 409.6 245.748 409.6zM154.031 40.669c0-33.932-27.508-61.44-61.44-61.44s-61.44 27.508-61.44 61.44v61.44h122.88v-61.44zM1096.122 40.669c0-33.932-27.508-61.44-61.44-61.44s-61.44 27.508-61.44 61.44v61.44h122.88v-61.44zM1096.122 143.069h-1064.972v327.692h1064.96v-327.692zM194.991 225.001c45.242 0 81.932 36.678 81.932 81.932s-36.678 81.932-81.932 81.932-81.932-36.678-81.932-81.932 36.701-81.932 81.932-81.932zM194.991 347.881c22.621 0 40.96-18.327 40.96-40.96s-18.327-40.96-40.96-40.96-40.96 18.327-40.96 40.96c0 22.609 18.351 40.96 40.96 40.96zM932.294 225.001c45.254 0 81.932 36.678 81.932 81.932s-36.678 81.932-81.932 81.932-81.932-36.678-81.932-81.932 36.678-81.932 81.932-81.932zM932.294 347.881c22.621 0 40.96-18.327 40.96-40.96s-18.327-40.96-40.96-40.96-40.96 18.327-40.96 40.96c-0.023 22.609 18.327 40.96 40.96 40.96z" />
<glyph unicode="&#xe626;" glyph-name="parking" horiz-adv-x="1152" d="M1108.038 530.618c-40.96 409.577-245.76 450.548-286.732 450.548s-245.76 0-245.76 0-204.8 0-245.76 0-245.748-40.96-286.708-450.548c-22.621 0-40.96-18.351-40.96-40.96v-430.068c0-56.564 45.836-102.4 102.4-102.4s102.4 45.836 102.4 102.4v61.44h737.268v-61.44c0-56.564 45.836-102.4 102.4-102.4s102.4 45.836 102.4 102.4v430.068c0 22.621-18.327 40.96-40.948 40.96zM329.798 940.195c20.468 0 245.76 0 245.76 0s225.268 0 245.76 0c20.468 0 204.8-40.96 245.76-409.6h-983.052c40.96 368.652 225.268 409.6 245.76 409.6zM165.969 59.567c0-33.943-27.508-61.44-61.44-61.44-33.943 0-61.44 27.508-61.44 61.44v61.44h122.868v-61.44zM1108.038 59.567c0-33.943-27.508-61.44-61.44-61.44s-61.44 27.508-61.44 61.44v61.44h122.868v-61.44zM1108.038 161.967h-1064.96v327.692h1064.948v-327.692zM206.906 243.887c45.242 0 81.932 36.689 81.932 81.932s-36.689 81.932-81.932 81.932c-45.242 0-81.932-36.666-81.932-81.932 0.023-45.242 36.689-81.932 81.932-81.932zM206.906 366.767c22.621 0 40.96-18.351 40.96-40.96s-18.351-40.96-40.96-40.96c-22.621 0-40.96 18.351-40.96 40.96s18.351 40.96 40.96 40.96zM944.198 243.887c45.242 0 81.932 36.689 81.932 81.932s-36.689 81.932-81.932 81.932c-45.242 0-81.932-36.666-81.932-81.932 0-45.242 36.666-81.932 81.932-81.932zM944.198 366.767c22.621 0 40.96-18.351 40.96-40.96s-18.351-40.96-40.96-40.96-40.96 18.351-40.96 40.96 18.327 40.96 40.96 40.96zM391.238 284.858h368.64c11.334 0 20.468 9.158 20.468 20.468s-9.158 20.468-20.468 20.468h-368.64c-11.334 0-20.468-9.158-20.468-20.468s9.146-20.468 20.468-20.468z" />
<glyph unicode="&#xe627;" glyph-name="shipping" horiz-adv-x="1094" d="M1097.146 960h-1097.146v-256h36.573v-768h1024v768h36.573v256zM1005.719-27.427h-914.281v731.427h914.281v-731.427zM1060.573 740.573h-1024v182.854h1024v-182.854zM380.509 429.719h342.423c44.032 0 79.872 37.958 79.872 82.281s-35.84 82.281-79.872 82.281h-342.423c-44.032 0-79.872-37.958-79.872-82.281s35.84-82.281 79.872-82.281zM380.509 557.719h342.423c18.874 0 34.234-17.571 34.234-36.573s-15.36-36.573-34.234-36.573h-342.423c-18.874 0-34.234 17.571-34.234 36.573s15.36 36.573 34.234 36.573z" />
<glyph unicode="&#xe628;" glyph-name="portfolio" horiz-adv-x="1117" d="M1047.715 825.169h-294.33c-13.661 77.324-96.477 134.831-200.029 134.831s-186.38-57.507-200.029-134.831h-294.33c-37.19 0-58.996-27.811-58.996-64.989v-764.009c0-37.167 21.807-60.16 58.996-60.16h988.719c37.167 0 73.414 22.982 73.414 60.16v764.009c0 37.167-36.247 64.989-73.414 64.989zM553.356 915.060c77.393 0 140.044-31.895 154.252-89.879h-308.503c14.185 57.996 76.858 89.879 154.252 89.879zM38.656 760.192c0 12.393 7.948 26.345 20.34 26.345h988.719c12.393 0 34.758-13.952 34.758-26.345v-382.010c0-12.393-22.365-16.919-34.758-16.919h-382.010c0 38.656-30.231 57.996-67.421 57.996h-89.879c-37.167 0-67.421-19.328-67.421-57.996h-381.975c-12.393 0-20.34 4.527-20.34 16.919v382.022zM637.882 306.42c0-12.404-10.054-22.458-22.481-22.458h-90.368c-12.404 0-22.481 10.054-22.481 22.458v51.712c0 12.404 10.054 22.481 22.481 22.481h90.368c12.404 0 22.481-10.054 22.481-22.481v-51.712zM1047.715-25.344h-988.719c-12.393 0-20.34 9.1-20.34 21.516v318.732c0-2.513 12.404-11.636 20.34-11.636h381.999c0-38.656 30.231-57.996 67.421-57.996h89.879c37.167 0 67.421 19.328 67.421 57.996h381.999c7.924 0 15.43 9.1 34.758 11.636v-318.732c0-12.404-22.365-21.516-34.758-21.516z" />
<glyph unicode="&#xe629;" glyph-name="bank_fee" horiz-adv-x="1431" d="M1203.188 497.513c70.691 0 128.012 57.297 128.012 128.012 0 70.691-57.297 128.012-128.012 128.012-70.691 0-128.012-57.297-128.012-128.012 0.023-70.714 57.321-128.012 128.012-128.012zM1203.188 702.313c42.426 0 76.812-34.385 76.812-76.812s-34.385-76.812-76.812-76.812c-42.426 0-76.812 34.385-76.812 76.812s34.385 76.812 76.812 76.812zM0 983.913v-1024h1433.588v1024h-1433.588zM870.4 796.881c47.011-42.182 76.812-103.238 76.812-171.369 0-68.154-29.777-129.21-76.812-171.392v342.749zM563.188 11.113h-511.988v51.2h511.988v-51.2zM563.188 113.513h-511.988v51.2h511.988v-51.2zM563.188 215.936h-511.988v51.2h511.988v-51.2zM563.188 454.109c-47.011 42.205-76.812 103.261-76.812 171.392 0 68.154 29.777 129.21 76.812 171.369v-342.749zM563.188 861.359c-76.998-50.269-128.012-137.053-128.012-235.857 0-98.839 51.002-185.588 128.012-235.857v-71.354h-511.988v614.435h511.988v-71.354zM819.2 11.113h-204.8v256.023h204.8v-256.023zM819.2 318.324h-204.8v614.388h204.8v-614.388zM1382.388 11.113h-511.988v51.2h511.988v-51.2zM1382.388 113.513h-511.988v51.2h511.988v-51.2zM1382.388 215.936h-511.988v51.2h511.988v-51.2zM1382.388 318.324h-511.988v71.331c76.998 50.246 128.012 137.030 128.012 235.857 0 98.816-51.002 185.565-128.012 235.857v71.331h511.988v-614.388zM230.412 497.513c70.691 0 128.012 57.297 128.012 128.012 0 70.691-57.297 128.012-128.012 128.012-70.691 0-128.012-57.297-128.012-128.012s57.297-128.012 128.012-128.012zM230.412 702.313c42.426 0 76.812-34.385 76.812-76.812s-34.385-76.812-76.812-76.812-76.812 34.385-76.812 76.812 34.385 76.812 76.812 76.812z" />
<glyph unicode="&#xe62a;" glyph-name="cashwallet" d="M512 265.391c-92.16 0-163.84-47.791-163.84-109.231s71.68-109.231 163.84-109.231 163.84 47.791 163.84 109.231c0 61.44-71.68 109.231-163.84 109.231zM512 82.769c-69.969 0-128 34.129-128 73.391s58.031 73.391 128 73.391 128-34.129 128-73.391c-1.711-39.249-59.729-73.391-128-73.391zM657.071 64c-10.24 0-18.769-8.529-18.769-18.769 0-39.249-58.031-73.391-128-73.391s-128 34.129-128 73.391c0 10.24-8.529 18.769-18.769 18.769s-18.769-8.529-18.769-18.769c0-61.44 71.68-109.231 163.84-109.231s163.84 47.791 163.84 109.231c3.409 11.951-5.12 18.769-15.36 18.769zM163.84 739.84c-92.16 0-163.84-47.791-163.84-109.231s71.68-109.231 163.84-109.231 163.84 47.791 163.84 109.231-71.68 109.231-163.84 109.231zM163.84 557.231c-69.969 0-128 34.129-128 73.391s59.729 73.391 128 73.391 128-34.129 128-73.391-58.031-73.391-128-73.391zM310.609 538.449c-10.24 0-18.769-8.529-18.769-18.769 0-39.249-58.031-73.391-128-73.391s-128 34.129-128 73.391c0 10.24-8.529 18.769-18.769 18.769s-17.071-6.831-17.071-17.071c0-61.44 71.68-109.231 163.84-109.231s163.84 47.791 163.84 109.231c1.711 10.24-6.831 17.071-17.071 17.071zM310.609 429.231c-10.24 0-18.769-8.529-18.769-18.769 0-39.249-58.031-73.391-128-73.391s-128 34.129-128 73.391c0 10.24-8.529 18.769-18.769 18.769s-17.071-6.831-17.071-17.071c0-61.44 71.68-109.231 163.84-109.231s163.84 47.791 163.84 109.231c1.711 10.24-6.831 17.071-17.071 17.071zM310.609 320c-10.24 0-18.769-8.529-18.769-18.769 0-39.249-58.031-73.391-128-73.391s-128 34.129-128 73.391c0 10.24-8.529 18.769-18.769 18.769s-17.071-8.529-17.071-18.769c0-61.44 71.68-109.231 163.84-109.231s163.84 47.791 163.84 109.231c1.711 10.24-6.831 18.769-17.071 18.769zM310.609 210.769c-10.24 0-18.769-8.529-18.769-18.769 0-39.249-58.031-73.391-128-73.391s-128 34.129-128 73.391c0 10.24-8.529 18.769-18.769 18.769s-17.071-8.529-17.071-18.769c0-61.44 71.68-109.231 163.84-109.231s163.84 47.791 163.84 109.231c1.711 10.24-6.831 18.769-17.071 18.769zM566.609 739.84c92.16 0 163.84 47.791 163.84 109.231s-71.68 110.929-163.84 110.929-163.84-47.791-163.84-109.231 71.68-110.929 163.84-110.929zM566.609 922.449c69.969 0 128-34.129 128-73.391s-58.031-73.391-128-73.391-128 34.129-128 73.391 58.031 73.391 128 73.391zM566.609 630.609c92.16 0 163.84 47.791 163.84 109.231 0 10.24-8.529 18.769-18.769 18.769s-18.769-8.529-18.769-18.769c0-39.249-58.031-73.391-128-73.391s-128 34.129-128 73.391c0 10.24-8.529 18.769-18.769 18.769s-18.769-8.529-18.769-18.769c1.711-61.44 75.089-109.231 167.249-109.231zM566.609 521.391c92.16 0 163.84 47.791 163.84 109.231 0 10.24-8.529 18.769-18.769 18.769s-18.769-8.529-18.769-18.769c0-39.249-58.031-73.391-128-73.391s-128 34.129-128 73.391c0 10.24-8.529 18.769-18.769 18.769s-18.769-8.529-18.769-18.769c1.711-61.44 75.089-109.231 167.249-109.231zM566.609 412.16c27.311 0 54.609 5.12 78.511 13.649 10.24 3.409 13.649 13.649 10.24 23.889s-13.649 13.649-23.889 10.24c-20.48-6.831-42.671-11.951-66.56-11.951-69.969 0-128 34.129-128 73.391 0 10.24-8.529 18.769-18.769 18.769s-18.769-8.529-18.769-18.769c1.711-61.44 75.089-109.231 167.249-109.231zM566.609 301.231c27.311 0 54.609 5.12 78.511 13.649 10.24 3.409 13.649 13.649 10.24 23.889s-13.649 13.649-23.889 10.24c-20.48-6.831-42.671-11.951-66.56-11.951-69.969 0-128 34.129-128 73.391 0 10.24-8.529 18.769-18.769 18.769s-18.769-8.529-18.769-18.769c1.711-59.729 75.089-109.231 167.249-109.231zM694.609 448c0-61.44 71.68-109.231 163.84-109.231s163.84 47.791 163.84 109.231-71.68 109.231-163.84 109.231-163.84-47.791-163.84-109.231zM858.449 521.391c69.969 0 128-34.129 128-73.391s-58.031-73.391-128-73.391-128 34.129-128 73.391 58.031 73.391 128 73.391zM1003.52 357.551c-10.24 0-18.769-8.529-18.769-18.769 0-39.249-58.031-73.391-128-73.391s-128 34.129-128 73.391c0 10.24-8.529 18.769-18.769 18.769s-18.769-8.529-18.769-18.769c0-61.44 71.68-109.231 163.84-109.231s163.84 47.791 163.84 109.231c3.409 10.24-5.12 18.769-15.36 18.769zM1003.52 246.609c-10.24 0-18.769-8.529-18.769-18.769 0-39.249-58.031-73.391-128-73.391s-128 34.129-128 73.391c0 10.24-8.529 18.769-18.769 18.769s-18.769-8.529-18.769-18.769c0-61.44 71.68-109.231 163.84-109.231s163.84 47.791 163.84 109.231c3.409 11.951-5.12 18.769-15.36 18.769z" />
<glyph unicode="&#xe62b;" glyph-name="card_payment" horiz-adv-x="1466" d="M1272.006 960h-1085.289c-118.668 0-186.705-112.372-186.705-192.337v-650.659c0-98.839 75.601-181.004 174.441-181.004h1109.795c98.839 0 178.618 82.164 178.618 181.004v655.558c0 97.676-90.647 187.439-190.86 187.439zM186.705 886.854h1085.289c64.442 0 142.092-52.317 142.092-114.292v-31.988h-1365.329v27.089c0 43.322 55.343 119.203 137.949 119.203zM1284.247-15.244h-1109.795c-63.639 0-125.684 68.585-125.684 132.247v452.899h1365.329v-452.899c0-63.663-66.199-132.247-129.85-132.247z" />
<glyph unicode="&#xe62c;" glyph-name="charity" horiz-adv-x="1164" d="M1060.201 860.335c-64.756 64.268-150.493 99.665-241.443 99.665-86.842 0-169.542-32.512-232.937-91.52l-6.644-6.179-18.932 18.909-9.821 7.855c-17.513 13.649-36.34 25.472-55.901 35.13-47.535 23.761-98.874 35.805-152.599 35.805-91.089 0-176.849-35.398-241.466-99.665-64.663-64.291-100.34-149.108-100.445-238.767-0.128-93.487 12.544-155.183 83.037-226.444l54.423-37.713-0.268 1.455c4.399-12.276 11.229-23.692 20.829-33.268 16.919-16.977 39.249-26.333 62.836-26.333 15.267 0 29.754 4.271 42.543 11.823-7.855-13.277-12.090-28.358-11.683-44.16 0.454-23.063 9.763-44.788 26.124-61.196 16.884-17.001 39.226-26.38 62.895-26.38 19.724 0 38.284 6.609 53.073 18.746-12.148-14.79-18.758-33.35-18.758-53.073 0-23.552 9.356-45.859 26.31-62.801 16.966-16.966 39.284-26.31 62.836-26.31 14.918 0 29.242 3.828 41.786 10.985-7.412-12.975-11.194-27.811-10.892-43.276 0.431-23.063 9.74-44.835 26.124-61.196 16.861-17.047 39.203-26.415 62.883-26.415 22.481 0 43.462 8.611 59.078 24.18l301.661 299.357c37.26 37.26 73.216 73.228 105.321 105.251 71.389 71.471 110.615 162.665 110.487 256.791-0.081 89.658-35.77 174.452-100.468 238.743zM109.801 427.183c-44.753 57.495-68.957 125.161-68.876 194.339 0.081 78.72 31.488 153.216 88.378 209.792 56.925 56.599 132.422 87.761 212.62 87.761 47.302 0 92.509-10.601 134.388-31.558 17.164-8.471 33.641-18.804 48.966-30.755l6.935-5.399 155.799-155.718c24.855-25.041 22.156-68.317-6.016-96.512-26.927-26.927-72.39-29.812-96.349-5.993l-240.279 240.407-49.373-49.396 77.975-77.999-238.313-238.301c-9.041-9.065-16.431-19.607-21.935-31.325-1.431-3.072-2.746-6.179-3.91-9.356zM132.247 393.437c-0.105-1.699-0.489-3.316-0.489-5.039-0.163 1.804 0.081 3.433 0.489 5.039zM186.996 354.525c-9.228 9.228-14.324 21.26-14.324 33.885 0 11.567 4.364 22.307 12.253 30.22l238.301 238.301 66.176-66.153-238.255-238.255c-16.861-16.675-46.545-15.651-64.151 2.001zM370.944 232.529c-16.559-16.535-46.534-15.628-64.081 2.083-8.925 8.937-13.975 20.713-14.22 33.268-0.303 11.648 4.026 22.609 12.148 30.836l238.58 238.557c27.741-23.761 65.268-34.7 102.656-29.812l-275.084-274.944zM1021.254 393.728c-32.081-31.977-68.073-67.968-105.332-105.274l-301.58-299.276c-16.652-16.593-46.534-15.651-64.081 2.083-8.937 8.937-13.999 20.713-14.22 33.152-0.244 11.788 4.108 22.819 12.137 30.953l279.959 280.076-53.69 53.772-279.936-280.076c-16.733-16.617-46.487-15.651-64.163 2.025-9.228 9.228-14.324 21.26-14.324 33.862 0 11.578 4.364 22.307 12.276 30.22l279.971 280.099-53.446 53.551c28.3 5.551 55.249 19.747 76.567 40.902 55.308 55.552 57.984 143.069 5.958 195.084l-107.567 107.601c53.318 43.078 119.657 66.583 188.986 66.583 80.081 0 155.59-31.162 212.631-87.785 56.902-56.553 88.273-131.060 88.378-209.792 0.128-83.177-34.863-164.084-98.502-227.782z" />
<glyph unicode="&#xe62d;" glyph-name="window" d="M906.124-64h-384.314c-65.012 0-117.9 52.864-117.9 117.876v384.314c0 65.012 52.876 117.9 117.9 117.9h384.314c65.001 0 117.9-52.876 117.9-117.9v-384.326c0-65.001-52.899-117.865-117.9-117.865zM521.809 513.024c-41.263 0-74.833-33.571-74.833-74.833v-384.326c0-41.251 33.571-74.822 74.833-74.822h384.314c41.263 0 74.833 33.571 74.833 74.822v384.326c0 41.263-33.571 74.833-74.833 74.833h-384.314zM331.567 224.489h-194.63c-75.508 0-136.937 61.417-136.937 136.937v461.649c0 75.508 61.417 136.937 136.937 136.937h461.638c75.508 0 136.937-61.417 136.937-136.937v-194.63h-310.039c-51.77 0-93.871-42.112-93.871-93.871v-310.074zM136.937 916.934c-51.77 0-93.882-42.112-93.882-93.882v-461.638c0-51.77 42.112-93.882 93.882-93.882h151.575v267.020c0 75.508 61.417 136.937 136.937 136.937h266.996v151.587c0 51.77-42.112 93.882-93.882 93.882h-461.615z" />
<glyph unicode="&#xe62e;" glyph-name="clover" horiz-adv-x="1047" d="M314.17-64c-41.914 0-78.65 12.893-109.172 38.342-110.895 92.474-69.958 263.284-53.097 317.94-47.395 32.873-186.065 143.639-144.070 290.141 39.215 137.041 203.357 151.843 272.105 151.843 6.004 0 11.345-0.105 15.919-0.268 20.201 55.121 93.917 226.001 230.796 226.001 137.658 0 211.363-172.672 231.121-226.863 66.909-0.954 250.938-16.14 287.872-150.959 36.945-135.11-100.713-254.895-145.012-289.28 15.558-56.215 58.24-247.087-54.388-320.116-27.729-17.932-60.707-26.985-98.095-26.985-90.985 0-185.484 53.469-220.369 75.357-33.117-24.716-123.229-85.143-213.597-85.143zM279.913 689.757c-58.659 0-198.435-11.648-229.329-119.587-40.041-139.683 137.507-248.564 139.299-249.658l15.837-9.53-6.47-17.315c-0.721-1.955-71.855-196.678 34.234-285.161 22.633-18.863 49.024-28.032 80.687-28.032 95.255 0 197.19 84.224 198.202 85.073l13.033 10.892 13.952-9.716c1.094-0.756 110.953-76.451 208.803-76.451 28.684 0 53.562 6.668 73.914 19.828 84.247 54.668 51.433 223.872 31.651 284.474l-5.097 15.674 13.51 9.46c1.757 1.233 175.209 124.055 140.567 250.705-30.825 112.559-215.575 118.26-252.288 118.26-4.783 0-7.564-0.093-7.773-0.105l-16.966-0.582-5.027 16.244c-0.663 2.106-67.002 211.258-194.001 211.258-126.953 0-193.327-209.152-194.001-211.258l-5.353-17.28-18.036 1.711c-0.105 0.023-11.508 1.094-29.347 1.094zM525.94 414.988c0 0-57.204-158.127-100.329-120.995s84.108 132.841 84.108 132.841-167.401 1.071-146.095 57.996c21.295 56.913 152.25-38.935 152.25-38.935s-49.967 156.858 10.065 156.858c60.032 0 10.031-156.858 10.031-156.858s130.060 95.697 152.25 38.935c22.225-56.762-146.060-57.996-146.060-57.996s131.526-94.557 84.108-132.841c-47.511-38.249-100.329 120.995-100.329 120.995z" />
<glyph unicode="&#xe62f;" glyph-name="cog" d="M1013.19 515.421l0.070 0.291-131.072 37.469c-7.599 25.251-17.827 49.28-30.161 72.064l66.397 119.459-0.291 0.151c3.852 6.935 3.13 15.756-2.781 21.667l-77.556 77.58c-5.911 5.911-14.72 6.644-21.667 2.781l-0.14 0.279-119.377-66.327c-22.807 12.346-46.918 22.644-72.215 30.231l-37.411 130.956-0.314-0.081c-2.199 7.645-8.948 13.37-17.28 13.37h-109.719c-8.343 0-15.081-5.725-17.28-13.37l-0.314 0.081-37.399-130.921c-23.983-7.18-46.883-16.838-68.631-28.346l-121.309 66.048-0.151-0.279c-6.993 3.782-15.953 2.897-22.063-3.2l-80.070-80.070c-6.121-6.086-6.993-15.046-3.2-22.063l-0.279-0.151 66.083-121.402c-10.822-20.561-20.026-42.065-27.055-64.628l-132.236-38.993 0.070-0.314c-7.645-2.246-13.335-9.228-13.335-17.827v-113.257c0-8.623 5.702-15.581 13.335-17.85l-0.047-0.291 132.236-38.993c7.028-22.54 16.233-44.044 27.055-64.628l-66.083-121.379 0.279-0.151c-3.793-6.993-2.897-15.953 3.2-22.063l80.070-80.081c6.086-6.086 15.046-6.97 22.063-3.177l0.151-0.279 121.158 65.967c20.643-10.927 42.298-20.224 64.954-27.264l38.889-131.898 0.326 0.070c2.246-7.645 9.204-13.335 17.85-13.335h113.257c8.623 0 15.581 5.702 17.827 13.335l0.314-0.070 38.912 131.875c23.983 7.471 46.825 17.396 68.538 29.219l119.238-66.257 0.14 0.279c6.935-3.852 15.756-3.107 21.667 2.781l77.58 77.591c5.911 5.888 6.644 14.72 2.781 21.667l0.291 0.14-66.432 119.436c12.3 22.772 22.551 46.848 30.15 72.076l131.072 37.446-0.070 0.314c7.645 2.188 13.347 8.948 13.347 17.28v109.719c-0.012 8.343-5.702 15.104-13.347 17.303zM989.975 402.199l-137.74-39.343c-8.646-36.422-22.982-70.505-42.065-101.457l69.585-125.265-58.077-58.065-125.277 69.585c-30.15-18.583-63.29-32.64-98.618-41.344l-40.832-138.438h-84.794l-40.82 138.438c-34.385 8.483-66.7 22.028-96.198 39.866l-126.813-69.062-59.939 59.951 69.039 126.813c-17.862 29.498-31.407 61.812-39.866 96.186l-138.438 40.832v84.794l138.438 40.82c8.483 34.385 22.028 66.7 39.866 96.198l-69.039 126.79 59.939 59.951 126.813-69.039c30.301 18.351 63.558 32.175 99.002 40.588l39.343 137.74h82.153l39.343-137.74c36.422-8.646 70.505-23.005 101.434-42.089l125.277 69.609 58.077-58.065-69.585-125.277c19.084-30.953 33.431-65.059 42.065-101.434l137.74-39.354v-82.199zM514.537 626.141c-100.969 0-182.865-81.873-182.865-182.865s81.873-182.865 182.865-182.865 182.865 81.85 182.865 182.865c-0.012 100.992-81.885 182.865-182.865 182.865zM514.537 296.983c-80.791 0-146.292 65.501-146.292 146.292s65.501 146.292 146.292 146.292c80.791 0 146.292-65.501 146.292-146.292-0.012-80.791-65.513-146.292-146.292-146.292z" />
<glyph unicode="&#xe630;" glyph-name="coins" horiz-adv-x="977" d="M768 618.671c-22.388 0-43.881-1.978-64-5.644v218.985c0 71.785-93.708 128-213.329 128s-213.329-56.215-213.329-128v-133.644c-20.119 3.665-41.612 5.644-64 5.644-119.622 0-213.329-56.215-213.329-128v-341.329c0-71.785 93.708-128 213.329-128 21.876 0 43.369 2.001 64 5.772v-48.431c0-71.785 93.708-128 213.329-128s213.329 56.215 213.329 128v48.431c20.631-3.77 42.124-5.772 64-5.772 119.622 0 213.329 56.215 213.329 128v256c0 71.785-93.708 128-213.329 128v0zM42.671 413.196c38.609-30.836 100.026-50.537 170.671-50.537s132.061 19.7 170.671 50.537v-7.866c0-50.281-89.937-85.329-170.671-85.329s-170.671 35.060-170.671 85.329v7.866zM426.671 368.431c20.631-3.77 42.124-5.772 64-5.772s43.369 2.001 64 5.772v-11.415c-20.119 3.665-41.612 5.644-64 5.644s-43.881-1.978-64-5.644v11.415zM554.671 411.392c-1.35 0-2.711-0.116-4.096-0.396-38.353-7.529-81.455-7.529-119.808 0-1.385 0.268-2.746 0.396-4.096 0.396v42.391c20.631-3.77 42.124-5.772 64-5.772s43.369 2.001 64 5.772v-42.391zM490.671 320c80.721 0 170.671-35.060 170.671-85.329s-89.937-85.329-170.671-85.329-170.671 35.060-170.671 85.329c0 50.281 89.937 85.329 170.671 85.329v0zM597.329 405.329v7.866c38.609-30.836 100.026-50.537 170.671-50.537s132.061 19.7 170.671 50.537v-7.866c0-50.281-89.937-85.329-170.671-85.329s-170.671 35.060-170.671 85.329v0zM555.159 496.721c-1.524 0.035-3.060-0.070-4.608-0.396-38.33-7.529-81.443-7.529-119.773 0-1.385 0.268-2.769 0.396-4.108 0.396v42.38c20.631-3.77 42.124-5.772 64-5.772 29.219 0 56.867 3.398 82.025 9.519-10.275-14.15-16.303-29.684-17.524-46.127v0zM661.329 746.671c0-50.281-89.937-85.329-170.671-85.329s-170.671 35.060-170.671 85.329v7.866c38.609-30.836 100.026-50.537 170.671-50.537s132.061 19.7 170.671 50.537v-7.866zM490.671 618.671c70.644 0 132.061 19.7 170.671 50.537v-7.866c0-50.281-89.937-85.329-170.671-85.329-20.561 0-40.716 1.908-59.904 5.667-1.548 0.303-3.072 0.407-4.596 0.372-1.233 16.454-7.249 32.012-17.524 46.15 25.158-6.132 52.806-9.519 82.025-9.519v0zM384 490.671c0-50.281-89.937-85.329-170.671-85.329s-170.671 35.060-170.671 85.329v7.866c38.609-30.836 100.026-50.537 170.671-50.537s132.061 19.7 170.671 50.537v-7.866zM42.671 327.866c38.609-30.836 100.026-50.537 170.671-50.537 29.231 0 56.879 3.398 82.025 9.519-10.275-14.15-16.314-29.696-17.524-46.15-1.524 0.035-3.060-0.070-4.608-0.396-19.165-3.759-39.319-5.667-59.892-5.667-80.721 0-170.671 35.060-170.671 85.329v7.889zM320 157.196c38.609-30.836 100.026-50.537 170.671-50.537s132.061 19.7 170.671 50.537v-7.866c0-50.281-89.937-85.329-170.671-85.329s-170.671 35.060-170.671 85.329v7.866zM703.5 240.71c-1.233 16.454-7.273 32.012-17.524 46.15 25.158-6.132 52.806-9.519 82.025-9.519 70.644 0 132.061 19.7 170.671 50.537v-7.866c0-50.281-89.937-85.329-170.671-85.329-20.561 0-40.716 1.908-59.892 5.667-1.548 0.303-3.084 0.407-4.608 0.372v0zM938.671 490.671c0-50.281-89.937-85.329-170.671-85.329s-170.671 35.060-170.671 85.329 89.937 85.329 170.671 85.329 170.671-35.060 170.671-85.329v0zM490.671 917.329c80.721 0 170.671-35.060 170.671-85.329s-89.937-85.329-170.671-85.329-170.671 35.060-170.671 85.329 89.937 85.329 170.671 85.329v0zM213.329 661.329c80.721 0 170.671-35.060 170.671-85.329s-89.937-85.329-170.671-85.329-170.671 35.060-170.671 85.329 89.937 85.329 170.671 85.329v0zM213.329 149.329c-80.721 0-170.671 35.060-170.671 85.329v7.866c38.609-30.836 100.026-50.537 170.671-50.537 21.876 0 43.369 2.001 64 5.772v-42.38c-1.35 0-2.735-0.116-4.108-0.396-19.165-3.759-39.319-5.667-59.892-5.667v0zM490.671-21.329c-80.721 0-170.671 35.060-170.671 85.329v7.866c38.609-30.836 100.026-50.537 170.671-50.537s132.061 19.7 170.671 50.537v-7.866c0-50.281-89.937-85.329-170.671-85.329v0zM768 149.329c-20.561 0-40.716 1.908-59.892 5.667-1.385 0.268-2.769 0.396-4.108 0.396v42.391c20.631-3.793 42.124-5.783 64-5.783 70.644 0 132.061 19.7 170.671 50.537v-7.866c0-50.281-89.937-85.329-170.671-85.329v0z" />
<glyph unicode="&#xe631;" glyph-name="compass" d="M511.988 960c-282.752 0-511.988-229.236-511.988-511.988s229.236-511.988 511.988-511.988c282.752 0 511.988 229.236 511.988 511.988s-229.225 511.988-511.988 511.988zM511.988-31.232c-264.646 0-479.244 214.586-479.244 479.244s214.621 479.22 479.244 479.22c264.646 0 479.244-214.586 479.244-479.244s-214.598-479.22-479.244-479.22zM430.068 529.932l-204.788-368.652 368.64 204.8 204.8 368.64-368.652-204.788zM469.446 514.676l245.795 136.553-136.553-245.795-109.242 109.242zM446.161 492.079l109.917-109.917-247.319-137.391 137.391 247.319z" />
<glyph unicode="&#xe632;" glyph-name="electronics" d="M860.16 38.4c-22.621 0-40.96 18.327-40.96 40.96 0 22.621 18.339 40.96 40.96 40.96s40.96-18.327 40.96-40.96c0-22.644-18.339-40.96-40.96-40.96zM983.052-64h-942.092c-22.586 0-40.96 18.374-40.96 40.948v204.8c0 22.575 18.374 40.96 40.96 40.96h942.092c22.575 0 40.96-18.374 40.96-40.96v-204.8c0-22.575-18.385-40.948-40.96-40.948zM983.052-23.052v0zM40.96 181.748v-204.8h942.092v204.8h-942.092zM122.868 99.84h409.6v-40.96h-409.6v40.96zM983.052 181.748h-942.092c-22.586 0-40.96 18.385-40.96 40.96v696.332c0 22.586 18.374 40.96 40.96 40.96h942.092c22.575 0 40.96-18.374 40.96-40.96v-696.332c0-22.575-18.385-40.96-40.96-40.96zM983.075 222.708h-0.012zM40.96 919.040v-696.332h942.092v696.332h-942.092zM901.132 325.108h-778.252c-22.586 0-40.96 18.374-40.96 40.96v471.052c0 22.586 18.374 40.96 40.96 40.96h778.252c22.575 0 40.96-18.374 40.96-40.96v-471.052c0-22.575-18.374-40.96-40.96-40.96zM901.132 366.068v0zM122.868 837.132v-471.052h778.24l0.012 471.052h-778.252z" />
<glyph unicode="&#xe633;" glyph-name="credit-payment" horiz-adv-x="1001" d="M889.6 618.682h-273.734c-12.591 0-22.796-9.542-22.796-21.329 0-11.776 10.205-21.329 22.796-21.329h273.734c37.713 0 68.399-28.695 68.399-63.988v-64.023h-342.144c-12.591 0-22.819-9.553-22.819-21.329s10.205-21.329 22.819-21.329h342.144v-362.694c0-35.281-30.685-63.988-68.399-63.988h-775.575c-37.713 0-68.399 28.695-68.399 63.988v362.694h342.144c12.591 0 22.819 9.553 22.819 21.329s-10.228 21.329-22.819 21.329h-342.144v64.023c0 35.281 30.685 63.988 68.399 63.988h273.722c12.591 0 22.819 9.553 22.819 21.329 0 11.788-10.205 21.329-22.819 21.329h-273.722c-62.871 0-114.025-47.837-114.025-106.647v-469.376c0-58.81 51.153-106.647 114.025-106.647h775.575c62.871 0 114.025 47.837 114.025 106.647v469.376c0 58.81-51.153 106.647-114.025 106.647zM342.144 768.012c5.841 0 11.671 2.083 16.128 6.249l120.727 112.919v-609.839c0-11.776 10.228-21.329 22.819-21.329s22.819 9.553 22.819 21.329v609.839l120.727-112.919c4.457-4.166 10.287-6.249 16.128-6.249s11.671 2.083 16.128 6.249c8.913 8.332 8.913 21.83 0 30.161l-159.663 149.318c-1.059 0.989-2.223 1.897-3.503 2.665-0.559 0.361-1.199 0.617-1.792 0.919-0.698 0.361-1.385 0.756-2.129 1.036-0.768 0.291-1.548 0.465-2.339 0.687-0.628 0.175-1.245 0.407-1.908 0.524-2.956 0.547-5.993 0.547-8.948 0-0.663-0.116-1.28-0.361-1.908-0.547-0.78-0.209-1.583-0.372-2.339-0.663s-1.431-0.698-2.153-1.059c-0.593-0.291-1.21-0.547-1.78-0.908-1.245-0.78-2.42-1.676-3.479-2.665l-159.663-149.318c-8.913-8.332-8.913-21.83 0-30.161 4.433-4.166 10.275-6.249 16.116-6.249z" />
<glyph unicode="&#xe634;" glyph-name="atm_fee" horiz-adv-x="1245" d="M1194.845 782.371h-1146.403v-152.855h240.687l-60.893-328.785c-12.323-50.176-4.876-100.271 20.98-133.271 17.734-22.586 52.294-53.818 116.375-53.818h516.934c63.942 0 98.234 30.301 115.747 52.282 25.775 32.326 33.478 78.929 21.911 129.478l-65.559 353.222h240.209v133.748zM285.498 191.779c-16.954 21.609-21.376 57.449-12.23 94.883l73.844 400.209 11.066 57.286h301.673v-592.303h-294.26c-36.049 0-63.756 19.095-80.093 39.936zM975.057 288.977c8.576-37.527 4.038-77.137-12.823-98.292-16.070-20.131-43.625-38.842-79.721-38.842h-31.593l-71.901 592.303h107.473l16.163-64.733 72.39-390.447z" />
<glyph unicode="&#xe635;" glyph-name="creditcard" d="M899.409 618.671h-273.071c-11.951 0-22.191-10.24-22.191-20.48 0-11.951 10.24-20.48 22.191-20.48h273.071c37.551 0 68.271-29.009 68.271-63.151v-66.56h-341.329c-11.951 0-22.191-10.24-22.191-20.48 0-11.951 10.24-20.48 22.191-20.48h341.329v-363.52c0-35.84-30.72-63.151-68.271-63.151h-774.831c-37.551 0-68.271 29.009-68.271 63.151v361.809h341.329c11.951 0 22.191 10.24 22.191 20.48 0 11.951-10.24 20.48-22.191 20.48h-341.329v64.849c0 35.84 30.72 63.151 68.271 63.151h273.071c11.951 0 22.191 10.24 22.191 20.48 0 11.951-10.24 20.48-22.191 20.48h-273.071c-63.151 0-114.351-47.791-114.351-105.809v-469.329c0-58.031 51.2-105.809 114.351-105.809h774.831c63.151 0 114.351 47.791 114.351 105.809v472.751c0 58.031-51.2 105.809-114.351 105.809zM351.569 767.151c5.12 0 11.951 1.711 15.36 6.831l121.169 112.64v-609.28c0-11.951 10.24-20.48 22.191-20.48s22.191 10.24 22.191 20.48v609.28l121.169-112.64c5.12-3.409 10.24-6.831 15.36-6.831s11.951 1.711 15.36 6.831c8.529 8.529 8.529 22.191 0 30.72l-160.431 148.48c-1.711 1.711-1.711 1.711-3.409 3.409 0 0-1.711 0-1.711 1.711 0 0-1.711 0-1.711 1.711 0 0-1.711 0-1.711 0s-1.711 0-1.711 0c-3.409 0-6.831 0-8.529 0 0 0-1.711 0-1.711 0s-1.711 0-1.711 0c0 0-1.711 0-1.711-1.711 0 0-1.711 0-1.711-1.711-1.711 0-1.711-1.711-3.409-3.409l-160.431-148.48c-8.529-8.529-8.529-22.191 0-30.72 6.831-3.409 11.951-6.831 17.071-6.831z" />
<glyph unicode="&#xe636;" glyph-name="amusement_park" horiz-adv-x="1280" d="M1177.588 729.588c-56.448 0-102.388-45.929-102.388-102.388 0-23.959 8.611-45.708 22.435-63.174l-225.268-202.833-178.036 409.937c28.753 18.153 48.070 49.99 48.070 86.447 0 56.471-45.94 102.412-102.412 102.412s-102.388-45.94-102.388-102.388c0-36.468 19.305-68.317 48.081-86.47l-178.060-409.937-225.199 202.787c13.882 17.396 22.377 39.238 22.377 63.22 0 56.471-45.94 102.388-102.388 102.388s-102.412-45.929-102.412-102.388c0-53.807 41.856-97.571 94.65-101.62l89.228-364.556c2.874-11.683 13.324-19.526 24.832-19.526 2.013 0 4.049 0.233 6.109 0.733 13.731 3.386 22.132 17.233 18.769 30.964l-86.598 353.804 252.777-227.642c4.759-4.282 10.868-6.598 17.14-6.598 1.804 0 3.619 0.198 5.446 0.582 8.041 1.757 14.767 7.284 18.048 14.813l194.409 447.569c1.757-0.081 3.433-0.512 5.201-0.512s3.444 0.431 5.225 0.535l194.385-447.546c3.281-7.564 9.984-13.068 18.048-14.825 1.78-0.384 3.619-0.582 5.423-0.582 6.26 0 12.381 2.316 17.117 6.598l252.753 227.584-86.575-353.711c-3.363-13.731 5.062-27.578 18.769-30.964 2.036-0.489 4.096-0.733 6.109-0.733 11.532 0 21.981 7.843 24.855 19.526l89.228 364.556c52.783 4.049 94.65 47.814 94.65 101.62-0.047 56.425-45.987 102.342-102.458 102.342zM102.388 576.012c-28.241 0-51.2 22.97-51.2 51.2s22.97 51.2 51.2 51.2 51.2-22.97 51.2-51.2c0.023-28.241-22.947-51.2-51.2-51.2zM639.988 806.4c-28.241 0-51.2 22.97-51.2 51.2s22.97 51.2 51.2 51.2c28.218 0 51.177-22.97 51.177-51.2s-22.924-51.2-51.177-51.2zM1177.588 576.012c-28.218 0-51.177 22.97-51.177 51.2s22.947 51.2 51.177 51.2c28.241 0 51.2-22.97 51.2-51.2 0-28.241-22.97-51.2-51.2-51.2zM1075.2-64h-870.4c-14.138 0-25.588 11.485-25.588 25.612v204.8c0 14.127 11.462 25.612 25.588 25.612h870.4c14.127 0 25.612-11.485 25.612-25.612v-204.8c0-14.138-11.485-25.612-25.612-25.612zM230.388-12.788h819.177v153.588h-819.177v-153.588z" />
<glyph unicode="&#xe637;" glyph-name="eating_out" horiz-adv-x="617" d="M450.572-63.092c-0.012 0-0.035 0-0.035 0-55.622 0.081-61.428 49.711-61.428 162.932 0 47.697 7.319 151.738 13.812 243.537 4.468 63.849 8.739 124.148 8.716 142.511-0.012 29.812-0.908 115.933-1.501 173.603-0.303 28.812-0.547 50.537-0.547 54.714v225.292c0 6.877 3.468 13.312 9.204 17.105 5.737 3.805 13.044 4.457 19.34 1.722 164.794-70.621 177.769-237.196 177.804-286.569-0.035-68.899-33.28-128.908-62.615-181.841-21.26-38.388-41.332-74.612-41.321-103.343 0-14.406 5.783-31.895 13.103-54.086 11.764-35.537 27.834-84.236 27.857-150.737 0.012-202.31-55.657-244.806-102.388-244.852zM450.56 906.449v-192.209c0-4.108 0.244-25.705 0.512-54.319 0.593-57.809 1.501-144.14 1.524-174.010 0.012-19.793-4.084-77.999-8.82-145.408-6.097-86.633-13.684-194.409-13.684-240.652 0-121.844 10.868-121.937 20.48-121.961 29.708 0.035 61.452 53.62 61.44 203.881-0.012 59.904-14.301 103.133-25.786 137.903-8.157 24.646-15.174 45.94-15.174 66.897-0.012 39.319 22.563 80.058 46.452 123.217 26.915 48.605 57.449 103.692 57.484 161.978-0.035 51.060-12.916 170.391-124.416 234.682zM307.095 921.135l-1.059 10.159-8.716 5.271c-3.956 2.385-41.46 23.401-136.948 23.436-94.243 0-126.255-20.48-131.724-24.588l-6.947-5.225-1.071-8.623c-0.838-6.737-20.655-166.365-20.631-268.788 0.012-80.396 46.185-114.839 76.719-137.623 13.789-10.287 25.681-19.165 25.681-26.182-0.012-16.78-3.247-55.436-6.959-100.201-6.063-72.553-13.58-162.851-13.521-227.503-0.012-168.367 20.666-225.28 81.85-225.28h0.442c20.108 0 45.207 4.899 61.172 43.008 13.94 33.361 20.433 91.276 20.399 182.26-0.012 64.512-7.494 154.624-13.498 227.002-3.735 45.009-6.959 83.863-6.982 100.689-0.012 6.877 11.729 15.511 25.332 25.495 30.673 22.575 77.056 56.681 77.056 138.345 0 67.537-19.747 260.166-20.585 268.335zM171.439-43.52l-3.956 20.48c-13.312 0.012-42.799 0.070-42.799 184.332-0.070 62.964 6.481 152.308 12.463 224.081 3.98 47.546 6.656 85.097 6.656 103.575 0.012 27.578-21.644 43.567-42.38 59.031-28.207 21.062-60.311 44.916-60.335 104.809-0.012 84.841 14.476 214.784 18.956 252.881 7.319 2.863 25.297 6.924 42.356 9.833v-201.286c0-11.311 5.748-20.48 17.071-20.48s17.071 9.169 17.071 20.48v204.497c17.071 0.175 16.233 0.303 22.319 0.303 8.495 0 11.811-0.221 28.881-0.547v-204.253c0-11.311 5.748-20.48 17.071-20.48s17.071 9.169 17.071 20.48v200.529c17.071-2.967 36.084-6.865 43.962-9.681 4.364-43.741 20.038-196.212 20.038-252.276 0-60.94-31.313-84.492-59.613-105.297-20.689-15.22-42.019-30.929-41.984-58.554 0.012-18.513 3.177-56.25 7.156-104.041 5.958-71.645 13.359-160.803 13.382-223.628 0.035-83.049-5.935-142.383-17.222-169.868-5.306-12.94-10.903-14.452-20.108-14.452z" />
<glyph unicode="&#xe638;" glyph-name="allowance" d="M838.26 565.865v190.999c0 113.408-180.503 202.24-418.653 202.24-238.173 0-422.179-88.844-422.179-202.24 0-3.2 2.572-6.284 2.572-9.449v-577.105c0-113.42 187.031-202.263 425.204-202.263 57.379 0 113.187 5.178 165.376 15.43 10.961 2.141 18.223 12.765 16.081 23.727-2.153 10.961-12.73 18.129-23.68 15.942-49.641-9.716-106.147-14.639-160.931-14.639-229.876 0.012-387.84 83.677-387.84 161.804v94.464c85.539-68.41 215.959-114.7 387.875-114.7 35.049 0 71.61 1.967 105.088 5.865 11.089 1.28 19.945 11.311 18.665 22.412-1.28 11.089-10.915 18.967-21.969 17.757-31.953-3.7-68.503-5.562-102.016-5.562-229.876 0-387.654 83.654-387.654 161.804v114.688c85.539-68.41 213.946-114.7 385.862-114.7 170.321 0 315.543 45.452 383.977 112.826v-52.131c0-11.171 5.935-20.224 17.105-20.224s17.105 9.053 17.105 20.224v114.001c0 12.183 0 14.324 0 23.692 0 4.247 0 4.247 0 15.127zM804.049 539.671c-17.105-73.495-168.692-146.863-383.977-146.863-229.876 0-385.862 83.677-385.862 161.804v114.153c85.539-68.038 213.085-114.153 384.442-114.153 171.892 0 334.068 46.289 385.396 114.688v-129.617zM425.681 595.060c-229.876 0-384.279 83.677-384.279 161.804s154.415 161.804 384.279 161.804 384.268-83.654 384.268-161.804-154.391-161.804-384.268-161.804zM809.972 352.721c-111.732 0-202.624-90.892-202.624-202.624s90.892-202.624 202.624-202.624 202.624 90.892 202.624 202.624-90.892 202.624-202.624 202.624zM809.972-11.345c-89.007 0-161.443 72.436-161.443 161.443s72.436 161.443 161.443 161.443 161.443-72.436 161.443-161.443-72.413-161.443-161.443-161.443zM821.155 261.039h-34.211v-85.539h-85.539v-34.211h85.539v-85.539h34.211v85.539h85.539v34.211h-85.539z" />
<glyph unicode="&#xe639;" glyph-name="dice" d="M585.135 960h-146.281c-329.146 0-438.865-109.708-438.865-438.865v-146.281c0-329.146 109.708-438.865 438.865-438.865h146.281c329.146 0 438.865 109.708 438.865 438.865v146.281c0 329.146-109.708 438.865-438.865 438.865zM987.427 380.079c0-305.629-101.876-407.505-407.505-407.505h-135.843c-305.641 0-407.529 101.876-407.529 407.505v135.843c0 305.641 101.876 407.529 407.529 407.529h135.843c305.629 0 407.505-101.876 407.505-407.529v-135.843zM351.791 444.428c-74.764 0-135.354-60.591-135.354-135.354s60.591-135.354 135.354-135.354c74.752 0 135.354 60.591 135.354 135.354s-60.591 135.354-135.354 135.354zM662.656 718.72c-74.752 0-135.354-60.591-135.354-135.354s60.591-135.354 135.354-135.354 135.354 60.591 135.354 135.354c0 74.752-60.614 135.354-135.354 135.354z" />
<glyph unicode="&#xe63a;" glyph-name="tuition" horiz-adv-x="1036" d="M1013.935 700.532c-11.299 1.443-21.713-6.412-23.238-17.699-10.566-78.15-44.335-144-106.275-207.255-65.955-67.503-218.81-50.060-380.649-31.569-145.536 16.605-296.064 33.78-352.943-19.817-76.858-72.39-74.519-206.755-74.484-208.081 0.279-11.229 9.46-22.086 20.631-22.086 0.14 0 0.279 0 0.407 0 11.357 0 20.399 11.59 20.247 22.947 0 0.256-0.012 7.564 0.64 17.548l328.017-174.057c-11.392-4.887-23.308-9.111-36.317-12.777-10.973-3.084-17.396-14.359-14.289-25.356 2.56-9.111 10.857-14.999 19.863-14.999 1.862 0 3.735 0.279 5.609 0.791 82.548 23.191 140.195 70.842 166.668 137.809 33.385 84.399 11.764 181.283-21.388 249.577 16.977-1.769 33.711-3.375 50.234-4.759 49.629-92.602 56.145-201.367 15.942-286.592-23.796-50.409-74.554-114.257-181.376-132.247-11.252-1.897-18.839-12.544-16.943-23.796 1.687-10.077 10.438-17.222 20.352-17.222 1.14 0 2.304 0.105 3.444 0.279 97.071 16.361 172.3 71.505 211.863 155.357 42.403 89.844 39.75 202.182-5.26 300.951 105.367-5.318 195.782 4.492 249.263 59.206 68.445 69.911 105.868 143.197 117.679 230.575 1.548 11.334-6.365 21.748-17.687 23.273zM212.736 410.787l341.004-214.877c1.664-1.047 3.421-1.804 5.213-2.339-2.234-10.996-5.364-21.83-9.542-32.407-1.827-4.596-4.061-8.879-6.225-13.231l-377.937 230.679c4.282 5.469 8.82 10.729 13.917 15.546 7.796 7.343 19.34 12.73 33.583 16.617zM489.169 84.957l-365.242 194.351c3.817 19.991 9.926 42.519 19.863 64.012l376.576-229.841c-9.018-10.508-19.421-20.026-31.209-28.521zM563.328 238.697l-285.801 180.108c64.989 1.99 148.503-7.471 221.615-15.814 5.853-0.675 11.66-1.327 17.489-1.978 24.809-41.612 46.673-101.807 46.685-162.316zM126.836 449.815c68.736 64.733 220.358 47.43 380.928 29.091 145.734-16.617 292.864-28.765 350.278 19.968 66.129 56.076 95.709 142.452 108.893 205.021 2.362 11.159-4.794 22.121-15.942 24.46-11.113 2.339-22.109-4.794-24.46-15.942-2.234-10.636-4.829-20.934-7.657-30.999l-309.388 169.402c17.687 13.871 31.046 23.878 33.908 25.926 7.121 4.596 10.961 13.312 8.913 22.039-2.56 11.113-13.638 17.99-24.785 15.453-11.823-2.735-103.389-78.929-128.535-102.435-65.571-61.312-58.647-140.404 22.365-256.465 4.003-5.76 10.438-8.844 16.966-8.844 4.073 0 8.204 1.199 11.799 3.712 9.356 6.516 11.625 19.409 5.132 28.742-26.368 37.772-41.856 68.271-50.316 93.37l234.333-165.83c-72.471-4.038-166.26 6.586-226.793 13.487-170.333 19.444-331.217 37.807-413.917-40.064-102.004-96.105-98.653-258.071-98.467-264.879 0.314-11.194 9.495-20.957 20.631-20.957 0.186 0 0.396 0 0.605 0 11.404 0 20.387 10.729 20.061 22.121-0.175 6.016-3.177 150.086 85.492 233.623zM905.367 641.676c-8.913-22.761-19.386-43.543-31.372-61.789l-332.125 215.063c10.531 9.321 21.713 18.804 32.733 27.869l330.764-181.143zM497.14 728.401c1.967 15.942 7.901 27.764 14.708 36.748l336.768-218.077c-5.574-6.004-11.334-11.648-17.303-16.721-7.831-6.621-19.212-11.532-32.733-15.29l-301.44 213.341zM447.535 545.012c4.34 0 8.704 1.361 12.439 4.177 9.1 6.877 10.892 19.828 4.003 28.94-71.924 95.011-68.433 182.016 10.321 258.572 47.151 45.824 103.354 78.522 114.141 84.62 0.012 0.012 0.372 0.209 0.396 0.221 9.879 5.644 13.172 18.153 7.54 28.044-5.609 9.891-18.374 13.312-28.265 7.692-11.578-6.516-71.82-41.6-122.612-90.961-93.405-90.81-98.548-202.007-14.487-313.111 4.096-5.353 10.275-8.169 16.535-8.169z" />
<glyph unicode="&#xe63b;" glyph-name="cash_gift" horiz-adv-x="1222" d="M609.001 585.6h40.599v121.798h-29.521l-44.172-40.599h33.094zM1201.827 385.466c-16.5 21.539-54.528 48.826-132.783 14.72-1.711 7.087-4.445 13.521-8.204 19.281-9.274 14.231-23.878 23.389-43.38 27.241-25.297 4.992-57.123-0.361-87.773-13.871-4.794 12.358-12.73 20.201-18.874 24.704-36.271 26.659-103.447 9.216-137.367-10.985-32.279-19.2-130.688-81.338-161.757-100.992-31.023 8.122-58.1 17.361-70.365 24.704-7.087 4.259-14.58 12.486-23.226 21.981-28.986 31.895-72.82 80.081-191.244 80.081-61.487 0-90.519-12.020-121.228-24.751-4.527-1.873-9.135-3.77-13.987-5.702-64.128-25.391-174.557-78.394-179.235-80.628-12.137-5.83-17.257-20.399-11.427-32.535 5.807-12.102 20.375-17.233 32.524-11.404 1.14 0.524 113.583 54.481 176.081 79.255 5.073 2.013 9.949 4.015 14.697 5.993 28.358 11.753 50.746 21.027 102.551 21.027 96.849 0 127.849-34.060 155.171-64.128 10.775-11.857 20.969-23.040 34.223-31.023 16.663-9.984 51.584-21.969 90.275-31.814 1.99-0.768 3.933-1.315 6.074-1.548 41.437-10.217 86.295-17.769 117.434-17.769 27.322 0 73.158-6.877 73.158-38.714 0-9.053 0-38.691-73.158-38.691h-141.428c-61.452 0-143.639 25.332-144.477 25.577-12.893 3.7-26.426-2.746-30.127-15.709-3.7-12.951 3.793-23.959 16.745-27.648 3.607-1.012 89.507-22.819 157.859-22.819h141.428c106.089 0 121.926 51.503 121.926 83.375 0 20.015-8.774 84.364-121.926 84.364-13.661 0-31.162 1.396-50.036 4.445 41.577 26.182 96.442 60.369 118.388 73.425 26.857 16 70.563 23.005 83.561 13.463 4.527-3.351 3.409-12.87 1.664-20.224-2.339-9.844 1.641-20.143 10.007-25.821 8.343-5.667 19.363-5.62 27.671 0.14 33.42 23.308 68.294 30.080 86.703 26.415 6.156-1.222 10.193-3.27 12.020-6.074 1.478-2.257 4.468-9.437 0.431-27.613-2.106-9.484 1.606-19.328 9.484-25.030 7.901-5.679 18.374-6.156 26.752-1.233 52.108 30.918 90.95 37.132 106.438 16.884 6.028-7.878 5.923-14.045 5.318-18.001-1.28-8.529-8.704-26.589-43.904-51.526-31.383-22.33-346.182-231.75-389.236-256.675-6.982-4.038-13.847-8.367-20.771-12.707-43.241-27.241-80.57-50.665-161.978-11.089-25.228 12.3-106.764 54.633-166.26 85.551l-53.69 27.834c-57.1 29.533-86.737 22.272-128.116-4.166l-65.769-42.915c-11.264-7.354-14.452-22.447-7.11-33.757 7.366-11.264 22.493-14.476 33.734-7.087l65.571 42.775c29.999 19.165 40.925 21.655 79.29 1.827l53.597-27.788c59.741-31.034 141.591-73.542 167.401-86.109 38.772-18.874 71.075-26.007 98.665-26.007 47.709 0 81.466 21.26 110.65 39.668 6.412 4.038 12.753 8.041 19.2 11.776 45.615 26.415 360.308 235.823 393.053 259.095 38.063 26.985 59.543 55.215 63.907 84.003 2.967 19.409-2.153 38.412-14.801 54.935zM632.506 472.355c94.115 0 170.659 76.567 170.659 170.682 0 8.948-0.896 17.664-2.234 26.252 70.179 10.717 124.16 71.319 124.16 144.431 0 80.652-65.629 146.281-146.304 146.281s-146.281-65.629-146.281-146.281c-94.115 0-170.682-76.567-170.682-170.682s76.567-170.682 170.682-170.682zM778.799 911.244c53.772 0 97.548-43.753 97.548-97.524 0-51.212-40.704-92.835-90.252-96.745-20.585 42.589-58.182 75.415-104.064 89.356-0.186 2.479-0.768 4.887-0.768 7.389 0 53.76 43.764 97.524 97.548 97.524zM632.506 764.94c67.235 0 121.926-54.691 121.926-121.903s-54.691-121.903-121.926-121.903c-67.212 0-121.903 54.691-121.903 121.903s54.668 121.903 121.903 121.903zM751.104 768.303h40.599v101.504h-23.261l-36.806-40.599h19.468zM823.901 187.299c-7.831 0-15.546 3.759-20.236 10.775-7.529 11.159-4.55 26.31 6.621 33.815l220.253 148.154c11.148 7.529 26.31 4.573 33.815-6.621 7.529-11.159 4.55-26.333-6.621-33.839l-220.253-148.154c-4.166-2.781-8.89-4.143-13.58-4.143zM771.526 274.095c-7.738 0-15.372 3.677-20.096 10.531-7.657 11.089-4.829 26.263 6.249 33.897l135.808 93.58c11.089 7.657 26.263 4.852 33.897-6.249 7.657-11.089 4.829-26.263-6.249-33.897l-135.808-93.58c-4.201-2.897-9.030-4.282-13.801-4.282z" />
<glyph unicode="&#xe63c;" glyph-name="rental_car" horiz-adv-x="1012" d="M767.628 561.245c-13.324 3.002-59.171 50.269-99.584 103.191l-1.85-1.978c-18.723 18.746-42.287 38.249-86.586 38.249h-254.394c-38.435 0-59.846-41.798-80.547-79.162-19.305-34.804-39.261-73.949-68.608-73.949h-36.689c-45.952 0-72.937-13.428-72.937-59.38v-152.39c0-28.16 23.215-48.524 54.598-48.524h38.342c8.774-61.242 53.969-91.718 108.404-91.718s99.631 30.464 108.404 91.718h296.82c8.774-61.242 53.969-91.718 108.404-91.718s99.631 30.464 108.404 91.718h38.342c29.3 0 56.937 24.867 56.937 54.167v110.057c0.012 63.209-181.318 102.481-217.449 109.708zM639.151 633.414c14.918-19.503 41.937-39.878 68.55-85.818h-212.561v122.484h84.468c28.614 0 42.461-19.584 59.543-36.666zM276.748 606.79c15.558 28.067 31.651 63.29 48.477 63.29h139.299v-122.484h-221.207c12.847 30.627 23.447 41.158 33.443 59.194zM267.776 231.412c-40.448 0-73.367 32.908-73.367 73.367s32.919 73.367 73.367 73.367 73.367-32.908 73.367-73.367-32.908-73.367-73.367-73.367zM781.393 231.412c-40.471 0-73.367 32.908-73.367 73.367s32.908 73.367 73.367 73.367c40.471 0 73.367-32.908 73.367-73.367s-32.908-73.367-73.367-73.367zM954.473 341.469c0-9.263-17.059-8.239-26.321-8.239h-38.342c-8.774 45.929-53.969 91.718-108.404 91.718s-99.631-45.777-108.404-91.718h-296.832c-8.774 45.929-53.969 91.718-108.404 91.718s-99.631-45.777-108.404-91.718h-38.342c-6.353 0.012-23.983-7.447-23.983 2.607v152.39c0 25.728 16.593 28.753 42.321 28.753h621.766c109.231-15.313 193.327-50.269 193.327-65.443v-110.068z" />
<glyph unicode="&#xe63d;" glyph-name="water" horiz-adv-x="687" d="M340.62-64.151c-187.823 0-340.62 152.797-340.62 340.62 0 180.957 310.668 654.988 323.887 675.084 7.377 11.264 26.077 11.264 33.455 0 13.242-20.084 323.887-494.127 323.887-675.084 0.012-187.823-152.797-340.62-340.62-340.62zM340.62 903.575c-65.501-102.575-300.544-480.908-300.544-627.119 0-165.737 134.831-300.544 300.544-300.544s300.544 134.831 300.544 300.544c0.012 146.211-235.043 524.544-300.544 627.119z" />
</font>
</defs>
</svg>
